<svg xmlns="http://www.w3.org/2000/svg" viewBox="0 0 599.56 375.68"><defs><linearGradient id="a" y2="855.27" gradientUnits="userSpaceOnUse" x2="884.9" gradientTransform="translate(-1201.7 97.909)" y1="812.74" x1="972.45"><stop offset="0" stop-color="#e1e1e1"/><stop offset="1" stop-color="#fff"/></linearGradient><linearGradient id="c" y2="858.83" gradientUnits="userSpaceOnUse" x2="973.03" gradientTransform="translate(-1201.7 97.909)" y1="811.65" x1="993.11"><stop offset="0"/><stop offset="1" stop-opacity="0"/></linearGradient><linearGradient id="d" y2="823.84" gradientUnits="userSpaceOnUse" x2="949.7" gradientTransform="translate(-1201.7 97.909)" y1="771.23" x1="963.55"><stop offset="0" stop-color="#fff"/><stop offset="1" stop-color="#c6c6c6"/></linearGradient><linearGradient id="e" y2="791.83" gradientUnits="userSpaceOnUse" x2="1063" y1="810.64" x1="1045"><stop offset="0" stop-color="#d3d3d3"/><stop offset="1" stop-opacity="0"/></linearGradient><linearGradient id="f" y2="835.18" gradientUnits="userSpaceOnUse" x2="1056.6" y1="787.67" x1="1055.1"><stop offset="0" stop-color="#fff"/><stop offset="1" stop-color="#fff" stop-opacity="0"/></linearGradient><linearGradient id="g" y2="820.74" gradientUnits="userSpaceOnUse" x2="1057.3" y1="787.89" x1="1050.7"><stop offset="0" stop-color="#272727"/><stop offset="1" stop-color="#757575"/></linearGradient><linearGradient id="i" y2="826.22" gradientUnits="userSpaceOnUse" x2="1032.6" y1="783.96" x1="1048.8"><stop offset="0"/><stop offset="1" stop-opacity="0"/></linearGradient><filter id="b" color-interpolation-filters="sRGB"><feGaussianBlur stdDeviation=".866"/></filter><filter id="h" color-interpolation-filters="sRGB"><feGaussianBlur stdDeviation=".347"/></filter></defs><path d="M-284.45 911.14c-29 11.336-63.332 16.007-97.494 20.891 67.942 15.634 77.836 42.877 106.94 65.659 74.726-15.723 95.804-28.622 121.87-41.783l-131.32-44.768z" stroke="#ccc" stroke-width="2" fill="url(#a)" transform="translate(856.289 -1857.45) scale(2.2361)"/><path d="M-282.46 911.64s-27.708 10.036-32.184 11.031c35.127 11.644 73.52 35.553 106.07 52.975 12.912-2.523 36.045-8.661 47.488-17.745 0 0-25.368-4.974-32.83-7.461-7.461-2.487-88.54-37.306-88.54-38.798z" filter="url(#b)" fill="url(#c)" transform="translate(856.289 -1857.45) scale(2.2361)"/><path d="M-252.34 831.78s105.42 16.218 112.14 17.898c13.15 3.288 28.501 26.065 23.378 52.965-7.305 38.354-27.03 51.869-40.911 54.061-8.004 1.445-24.073-1.297-33.03-5.572l-86.196-36.9c-22.405-9.892-21.728-35.796-17.386-51.77 4.342-15.971 19.725-32.143 42.007-30.682z" stroke="#ccc" stroke-width="2" fill="url(#d)" transform="translate(856.289 -1857.45) scale(2.2361)"/><path d="M1065.2 810.64c0 13.292-4.437 24.068-9.91 24.068-5.474 0-9.91-10.776-9.91-24.068s4.436-24.068 9.91-24.068c5.473 0 9.91 10.776 9.91 24.068z" transform="matrix(7.04975 2.56637 -1.4187 4.71571 -5773.077 -6366.77)" stroke-linejoin="round" color="#000" stroke="#ccc" stroke-linecap="round" stroke-width=".9" fill="url(#e)"/><path d="M1065.2 810.64c0 13.292-4.437 24.068-9.91 24.068-5.474 0-9.91-10.776-9.91-24.068s4.436-24.068 9.91-24.068c5.473 0 9.91 10.776 9.91 24.068z" transform="matrix(3.88388 1.48294 -.78158 2.72491 -2943.74 -3604)" stroke-linejoin="round" color="#000" stroke="#ececec" stroke-linecap="round" stroke-width=".777" fill="none"/><path d="M1065.2 810.64c0 13.292-4.437 24.068-9.91 24.068-5.474 0-9.91-10.776-9.91-24.068s4.436-24.068 9.91-24.068c5.473 0 9.91 10.776 9.91 24.068z" transform="matrix(4.52766 1.71173 -.91117 3.1453 -3518.417 -4186.348)" stroke-linejoin="round" color="#000" stroke="#ececec" stroke-linecap="round" stroke-width=".669" fill="none"/><path d="M1065.2 810.64c0 13.292-4.437 24.068-9.91 24.068-5.474 0-9.91-10.776-9.91-24.068s4.436-24.068 9.91-24.068c5.473 0 9.91 10.776 9.91 24.068z" transform="matrix(6.36908 2.34679 -1.28171 4.3121 -5165.305 -5809.533)" stroke-linejoin="round" color="#000" stroke="#f5f5f5" stroke-linecap="round" stroke-width=".9" fill="url(#f)"/><path d="M1065.2 810.64c0 13.292-4.437 24.068-9.91 24.068-5.474 0-9.91-10.776-9.91-24.068s4.436-24.068 9.91-24.068c5.473 0 9.91 10.776 9.91 24.068z" transform="matrix(5.69266 2.03791 -1.14558 3.74457 -4562.229 -5021.755)" stroke-linejoin="round" color="#000" stroke="#ececec" stroke-linecap="round" stroke-width=".624" fill="none"/><g color="#000"><path d="M1065.2 810.64c0 13.292-4.437 24.068-9.91 24.068-5.474 0-9.91-10.776-9.91-24.068s4.436-24.068 9.91-24.068c5.473 0 9.91 10.776 9.91 24.068z" transform="matrix(3.16878 1.2188 -.6377 2.23945 -2305.959 -2931.874)" stroke-linejoin="round" stroke="#ccc" stroke-linecap="round" stroke-width=".9" fill="url(#g)"/><path d="M1055.8 783.97c-7.04-.214-14.621 7.664-17.938 19.312-2.732 9.595-1.812 19.115 1.812 24.812-2.051-5.926-2.093-13.639.375-21.406 3.96-12.456 13.01-20.845 21.406-20.531-.822-.673-1.717-1.22-2.687-1.594a8.977 8.977 0 00-2.969-.594z" transform="matrix(2.12602 0 0 2.20383 -1716.856 -1611.77)" filter="url(#h)" fill="url(#i)"/></g></svg>