<svg width="416" height="422" xmlns="http://www.w3.org/2000/svg">
 <defs>
  <linearGradient x1="0.2812" y1="0.95771" x2="0.454" y2="0.94664" id="linearGradient13563">
   <stop stop-color="#999999" offset="0" id="stop8698"/>
   <stop stop-color="#444444" offset="1" id="stop8700"/>
  </linearGradient>
  <linearGradient x1="0.6276" y1="1.03956" x2="0.394" y2="0.00679" id="linearGradient13565">
   <stop stop-color="#cccccc" offset="0" id="stop4421"/>
   <stop stop-color="#e6e6e6" offset="0.15541" id="stop4429"/>
   <stop stop-color="#f2f2f2" offset="0.29515" id="stop4431"/>
   <stop stop-color="#b3b3b3" offset="0.5" id="stop4427"/>
   <stop stop-color="#e6e6e6" offset="0.81219" id="stop4433"/>
   <stop stop-color="#a0a0a0" offset="1" id="stop4423"/>
  </linearGradient>
  <radialGradient r="34.271" gradientTransform="matrix(1 0 0 .77362 0 43.318)" cx="290.7" cy="191.35" gradientUnits="userSpaceOnUse" id="radialGradient13567">
   <stop stop-color="#ffffff" offset="0" id="stop6778"/>
   <stop stop-color="#ffffff" offset="0.37333" id="stop7927"/>
   <stop stop-color="#ffffff" stop-opacity="0" offset="1" id="stop6780"/>
  </radialGradient>
  <radialGradient r="7.5736" cx="286.82" cy="189.07" gradientUnits="userSpaceOnUse" fy="186.49" fx="286.66" id="radialGradient13569">
   <stop stop-color="#cbcbcb" offset="0" id="stop4415"/>
   <stop stop-color="#acacac" offset="0.28667" id="stop4417"/>
   <stop stop-color="#121212" offset="1" id="stop4411"/>
  </radialGradient>
  <linearGradient x1="1.19846" y1="1.00019" x2="0.50784" y2="-0.02881" id="linearGradient13571">
   <stop stop-color="#666666" offset="0" id="stop5586"/>
   <stop stop-color="#cccccc" offset="0.28825" id="stop5592"/>
   <stop stop-color="#cccccc" offset="0.68442" id="stop5594"/>
   <stop stop-color="#b3b3b3" offset="1" id="stop5588"/>
  </linearGradient>
 </defs>
 <metadata>image/svg+xmlOpenclipartpaper scissors2007-08-02T20:56:58https://openclipart.org/detail/4665/paper-scissors-by-liakad-4665liakadpaperscissorstool</metadata>
 <g>
  <title>background</title>
  <rect fill="none" id="canvas_background" height="424" width="418" y="-1" x="-1"/>
 </g>
 <g>
  <title>Layer 1</title>
  <g transform="rotate(44.90029525756836 235.24116516113284,184.58795166015625) " stroke="null" id="layer1">
   <g stroke="null" transform="matrix(1.4076,0,0,1.4076,-289.86,-22.204) " id="g13519">
    <path stroke="#cccccc" fill-rule="evenodd" stroke-width="1px" fill="url(#linearGradient13563)" d="m358.9671,168.77201l11.37,-195.89l3.17,1.366l10.46,179.52l-15,25l-10,-10l0,0.004z" id="path3611"/>
    <path stroke="#4d4d4d" stroke-width="1px" fill="none" d="m367.8071,180.03201l6.38,-10.95" id="path12363"/>
    <path stroke="#000000" stroke-linejoin="round" fill-rule="evenodd" stroke-width="2" fill="#1a1a1a" d="m354.2471,161.71201l-1.28,0.68l0,61.38c0,30 -44,20 -54,50s10,50 30,50s40,-20 40,-40l0,-104l-14.72,-18.06zm-17.9,99.5c4.91,-0.06 9.67,2.04 12.65,6.03c8.32,12.23 5.8,32.62 -7.81,40.25c-12.41,7.51 -30.31,-0.59 -32.81,-14.88c-3.76,-15.87 11.88,-30.34 26.97,-31.37c0.32,-0.02 0.67,-0.03 1,-0.03z" id="path2256"/>
    <path stroke="#000000" fill-rule="evenodd" fill="#181818" d="m368.9671,271.77201l4,2l0,10l-4,2l0,-14z" id="rect3602"/>
    <path stroke="#000000" fill-rule="evenodd" fill="#181818" d="m377.1371,271.77201l-4,2l0,10l4,2l0,-14z" id="path3619"/>
    <path stroke="#808080" fill-rule="evenodd" stroke-width="1px" fill="url(#linearGradient13565)" d="m387.1371,168.77201l-13.72,-198.72l-2.72,1.792l-8.56,181.93l15,25l10,-10l0,-0.002z" id="path3613"/>
    <path stroke="null" fill-rule="evenodd" fill="url(#radialGradient13567)" d="m383.7171,119.21201l-19.97,0.06l-1.53,32.41l14.5,19.47l10,-8.44l-3,-43.5z" id="path6774"/>
    <path stroke="#1a1a1a" fill-rule="evenodd" fill="url(#radialGradient13569)" d="m380.1289,142.84201a7.0736,7.0736 0 1 1 -14.15,0a7.0736,7.0736 0 1 1 14.15,0z" id="path3641"/>
    <path stroke="null" fill-rule="evenodd" fill="#ffffff" d="m373.4071,-29.94699l-2.72,1.781l-0.66,14.25l8.28,125.5c0.26,3.85 2.37,4.53 5.16,4.22l-10.06,-145.75l0,-0.001z" id="path4437"/>
    <path stroke="null" fill-rule="evenodd" fill="url(#linearGradient13571)" d="m373.4071,-29.94699l-2.72,1.781l-0.47,9.876l8.53,129.4c0.24,3.62 2.15,4.42 4.69,4.25l-10.03,-145.31l0,0.003z" id="path4820"/>
    <path stroke="#808080" stroke-linejoin="round" stroke-width="0.71045" fill="none" d="m387.1371,168.77201l-13.72,-198.72l-2.72,1.792l-8.56,181.93l15,25l10,-10l0,-0.002z" id="path7932"/>
    <path stroke="#000000" stroke-linejoin="round" fill-rule="evenodd" stroke-width="2" fill="#1a1a1a" d="m391.8471,161.71201l-14.72,18.06l0,104c0,20 20,40 40,40s40,-20 30,-50s-54,-20 -54,-50l0,-61.38l-1.28,-0.68zm17.93,99.5c0.33,0 0.64,0.01 0.97,0.03c15.09,1.03 30.76,15.5 27,31.37c-2.5,14.29 -20.44,22.39 -32.84,14.88c-13.62,-7.63 -16.13,-28.02 -7.82,-40.25c2.99,-3.99 7.77,-6.09 12.69,-6.03z" id="path3615"/>
    <g stroke="null" id="g11133">
     <path stroke="null" opacity="0.09091" fill-rule="evenodd" fill="#4d4d4d" d="m359.4671,223.58201c0.99,15.59 -13.14,27.1 -26.93,30.93c-4.93,1.7 0.86,0.17 2.71,0.2c14.7,-1.44 25.32,13.7 25.1,27.22c1,8.5 -3.2,18.64 -7.66,24.06c12.05,-11.44 10.09,-29.27 9.74,-44.38c-0.17,-26.51 0.33,-53.17 -0.12,-79.59c-3.5,-6.09 -2.98,-0.35 -2.84,4.31l0,37.25zm-51.41,82.72c4.71,8.21 17.07,12.13 24.19,10.59c-9.33,0.67 -18.5,-3.73 -24.34,-10.81l0.15,0.22z" id="path11135"/>
     <path stroke="null" opacity="0.09091" fill-rule="evenodd" fill="#4d4d4d" d="m358.9371,177.08201c-0.28,17.52 0.66,35.18 -0.35,52.63c-2.9,13.86 -16.43,21.65 -29,25.44c-10.05,3.8 -22.35,10.56 -25.12,20.93c6.5,-14.03 23.58,-23.9 38.97,-19.9c15.68,5.96 19.97,26.6 13.87,40.97c-4.84,12.92 -19.25,22.3 -33.22,18.56c-9.3,-2.2 -17.15,-9.26 -20.59,-18.1c3.08,13.46 17.67,23 31.22,19.41c16.51,-3.68 29.16,-19.84 28.37,-36.81c-0.34,-32.73 -0.04,-65.48 -0.12,-98.22c-1.32,-1.36 -3.27,-4.52 -4.03,-4.91z" id="path11140"/>
     <path stroke="null" opacity="0.09091" fill-rule="evenodd" fill="#4d4d4d" d="m358.1871,175.11201c0.1,-0.03 -0.04,-0.05 0,0zc0.4,17.8 0.58,35.95 0,53.78c-2.36,13.84 -15.79,21.87 -28.26,25.59c-11.56,4.34 -24.59,11.53 -26.99,24.73c-4.73,15.45 3.71,35.66 20.87,38.5c20.45,3.38 40.22,-15.67 39.69,-36.1c0.13,-20.96 -0.28,-41.93 -0.03,-62.9c-0.25,-12.39 0.5,-25.19 -0.38,-37.32c-1.64,-2.02 -3.2,-4.28 -4.9,-6.28zm-21.5,80.54c14.26,-0.33 23.42,14.99 22.72,28.03c0.69,17.31 -14.72,35.14 -32.88,31.97c-17.06,-2.09 -29.71,-21.99 -22.18,-38.07c5.25,-12.8 18.55,-21.5 32.34,-21.93z" id="path11145"/>
     <path stroke="null" opacity="0.09091" fill-rule="evenodd" fill="#4d4d4d" d="m357.6571,174.18201c0.5,18.16 0.53,36.48 0.06,54.65c-2.39,13.83 -16.09,21.69 -28.5,25.38c-11.85,4.44 -24.72,12.05 -26.97,25.59c-4.48,15.96 4.77,36.29 22.31,38.53c21.01,2.8 40.43,-16.99 39.51,-37.68c-0.34,-33.02 0.09,-66.16 -0.19,-99.13c-2.08,-2.08 -4.24,-6.33 -6.22,-7.34zm-20.94,81.97c13.98,-0.29 22.83,14.7 22.19,27.53c0.68,17.01 -14.4,34.54 -32.28,31.5c-17.08,-2.13 -29.48,-22.16 -21.54,-38.1c5.4,-12.26 18.28,-20.52 31.63,-20.93z" id="path11150"/>
     <path stroke="null" opacity="0.09091" fill-rule="evenodd" fill="#4d4d4d" d="m357.3071,173.15201c-0.16,4.02 0.42,8.16 0.16,12.24c-0.14,14.25 0.25,28.53 -0.16,42.76c-1.84,12.29 -13.14,20.68 -24.46,24.11c-10.83,4.29 -23.13,9.14 -28.63,20.13c-5.94,12.74 -4.4,29.57 5.97,39.47c8.76,8.72 23.51,9.3 33.87,3.22c11.5,-6.12 20.09,-18.28 20.31,-31.62c0.93,-13.39 -0.59,-26.82 0.1,-40.22l0,-61.85c-2.52,-2.47 -4.16,-6.31 -7.16,-8.24zm-20.59,83.5c11.34,-0.34 19.69,10.34 21.21,20.77c2.58,13.75 -3.98,29.11 -16.74,35.23c-11.33,5.41 -25.74,0.89 -32.75,-9.19c-5.88,-7.54 -6.9,-18.25 -2.59,-26.75c5.33,-11.72 17.97,-19.66 30.87,-20.06z" id="path11155"/>
     <path stroke="null" opacity="0.09091" fill-rule="evenodd" fill="#4d4d4d" d="m356.9671,223.71201c0.9,13.74 -11.27,23.98 -23.35,27.7c-12.5,4.89 -27.73,10.83 -31.43,25.17c-5.47,15.39 0.58,35.45 16.87,41.38c18.79,6.9 39.95,-8.19 44.75,-26.57c2.87,-14.67 0.31,-29.77 1.16,-44.62l0,-65.56c-3.48,-3.56 -9.78,-15.04 -8,-3.82l0,46.32zm-20.25,33.44c12.61,-0.32 20.94,12.67 21.06,24.24c1.62,16.09 -10.82,33.85 -28,33c-16.16,-0.13 -30.1,-17.16 -25.09,-33.06c3.79,-13.92 17.82,-23.75 32.03,-24.18z" id="path11160"/>
     <path stroke="null" opacity="0.09091" fill-rule="evenodd" fill="#4d4d4d" d="m357.1271,172.11201c-2.13,1.32 -0.22,4.8 -0.66,6.85c-0.12,16.32 0.23,32.66 -0.15,48.96c-1.73,11.81 -12.47,19.87 -23.35,23.22c-11.41,4.47 -24.51,9.63 -29.91,21.44c-5.73,12.8 -4.17,29.29 5.88,39.47c8.81,9.23 23.85,10.35 34.81,4.34c12.36,-6.28 21.5,-19.09 21.66,-33.24c0.84,-13.45 -0.61,-26.92 0.06,-40.38l0,-61.78c-2.88,-2.63 -4.46,-7.07 -8.03,-8.91c-0.11,0.01 -0.22,-0.02 -0.31,0.03zm-20.38,85.54c10.84,-0.34 18.79,10.07 20.18,19.96c2.49,13.3 -3.75,28.16 -16.18,34.13c-10.54,5.04 -24.16,1.12 -31.06,-8.28c-6.01,-7.27 -7.18,-17.81 -3.02,-26.21c5.2,-11.42 17.41,-19.18 30.08,-19.6z" id="path11163"/>
     <path stroke="null" opacity="0.09091" fill-rule="evenodd" fill="#4d4d4d" d="m357.1271,171.61201c-3.49,1.95 0.12,7.78 -1.16,10.94c-0.39,15.69 0.73,31.5 -0.44,47.13c-3.09,12.97 -16.35,19.32 -27.98,23.1c-12.22,4.5 -24.9,12.8 -27.24,26.52c-4.8,17.13 5.27,38.61 23.94,41.03c22.17,2.93 42.66,-17.61 41.82,-39.56c-0.28,-33.31 -0.04,-66.64 -0.1,-99.97c-3.15,-2.55 -4.75,-8.25 -8.84,-9.19zm-20.38,86.54c12.91,-0.19 20.8,13.9 20.16,25.56c0.68,16.05 -13.81,32.84 -30.72,29.34c-15.75,-2.41 -26.75,-21.19 -19,-35.72c5.2,-11.29 17.18,-18.74 29.56,-19.18z" id="path11168"/>
     <path stroke="null" opacity="0.09091" fill-rule="evenodd" fill="#4d4d4d" d="m356.9671,171.11201c-3.94,1.91 -0.27,8.02 -1.5,11.32c-0.39,15.68 0.73,31.6 -0.44,47.15c-3.05,12.5 -15.55,18.78 -26.78,22.35c-12.28,4.58 -25.54,12.53 -28.19,26.43c-5.25,17.26 4.37,39.21 23.19,42.29c22.19,3.8 43.74,-16.71 43.25,-38.85c0.15,-20.67 -0.3,-41.35 -0.03,-62.03c-0.3,-13.14 0.6,-26.79 -0.44,-39.62c-3.11,-2.63 -4.7,-8.45 -9.06,-9.04zm-20.19,87.54c12.98,-0.15 20.44,14.26 19.66,25.84c0.2,15.4 -13.87,31.47 -30.16,28.09c-15.36,-2.29 -26.32,-21.01 -18.62,-35.03c5.01,-11.06 16.99,-18.52 29.12,-18.9z" id="path11173"/>
     <path stroke="null" opacity="0.09091" fill-rule="evenodd" fill="#4d4d4d" d="m356.9671,170.61201c-4.6,1.69 -0.84,8.37 -2,11.91c-0.39,15.62 0.72,31.47 -0.44,46.97c-3.06,12.7 -16.05,18.64 -27.39,22.36c-12.13,4.55 -25.01,12.79 -27.55,26.36c-5.38,17.52 4.48,39.79 23.57,42.94c22.47,3.88 44.33,-16.95 43.84,-39.32c0.18,-20.34 -0.32,-40.7 -0.03,-61.06l0,-40.41c-3.52,-2.7 -5.19,-9.18 -10,-9.75zm-20.16,88.54c12.71,-0.11 19.88,14.04 19.13,25.37c0.16,15.09 -13.51,30.84 -29.56,27.56c-15.13,-2.29 -25.77,-20.54 -18.29,-34.31c5.01,-10.9 16.72,-18.25 28.72,-18.62z" id="path11178"/>
     <path stroke="null" opacity="0.09091" fill-rule="evenodd" fill="#4d4d4d" d="m356.9071,170.11201c-5.34,1.85 -1.18,9.44 -2.44,13.47c-0.46,15.39 0.85,30.95 -0.53,46.25c-3.32,12.33 -15.98,17.87 -26.98,21.55c-12.24,4.63 -25.22,12.87 -27.87,26.7c-5.26,17.43 4.13,39.6 23,43.35c23.03,4.78 45.92,-16.54 45.41,-39.57c0.21,-20.02 -0.34,-40.05 -0.03,-60.09l0,-41.59c-3.69,-2.87 -5.42,-9.64 -10.56,-10.07zm-20.06,89.54c12.57,-0.07 19.56,14.27 18.56,25.43c-0.09,14.91 -13.94,30.07 -29.56,26.41c-14.49,-2.71 -24.55,-20.06 -17.29,-33.53c4.99,-10.79 16.46,-17.92 28.29,-18.31z" id="path11183"/>
    </g>
    <g stroke="null" transform="matrix(-1,0,0,1,568.48,0) " id="g11188">
     <path stroke="null" opacity="0.09091" fill-rule="evenodd" fill="#4d4d4d" d="m181.5329,223.58201c0.99,15.59 -13.14,27.1 -26.93,30.93c-4.93,1.7 0.86,0.17 2.71,0.2c14.7,-1.44 25.32,13.7 25.1,27.22c1,8.5 -3.2,18.64 -7.66,24.06c12.05,-11.44 10.09,-29.27 9.74,-44.38c-0.17,-26.51 0.33,-53.17 -0.12,-79.59c-3.5,-6.09 -2.98,-0.35 -2.84,4.31l0,37.25zm-51.41,82.72c4.71,8.21 17.07,12.13 24.19,10.59c-9.33,0.67 -18.5,-3.73 -24.34,-10.81l0.15,0.22z" id="path11190"/>
     <path stroke="null" opacity="0.09091" fill-rule="evenodd" fill="#4d4d4d" d="m181.0029,177.08201c-0.28,17.52 0.66,35.18 -0.35,52.63c-2.9,13.86 -16.43,21.65 -29,25.44c-10.05,3.8 -22.35,10.56 -25.12,20.93c6.5,-14.03 23.58,-23.9 38.97,-19.9c15.68,5.96 19.97,26.6 13.87,40.97c-4.84,12.92 -19.25,22.3 -33.22,18.56c-9.3,-2.2 -17.15,-9.26 -20.59,-18.1c3.08,13.46 17.67,23 31.22,19.41c16.51,-3.68 29.16,-19.84 28.37,-36.81c-0.34,-32.73 -0.04,-65.48 -0.12,-98.22c-1.32,-1.36 -3.27,-4.52 -4.03,-4.91z" id="path11192"/>
     <path stroke="null" opacity="0.09091" fill-rule="evenodd" fill="#4d4d4d" d="m180.2529,175.11201c0.1,-0.03 -0.04,-0.05 0,0zc0.4,17.8 0.58,35.95 0,53.78c-2.36,13.84 -15.79,21.87 -28.26,25.59c-11.56,4.34 -24.59,11.53 -26.99,24.73c-4.73,15.45 3.71,35.66 20.87,38.5c20.45,3.38 40.22,-15.67 39.69,-36.1c0.13,-20.96 -0.28,-41.93 -0.03,-62.9c-0.25,-12.39 0.5,-25.19 -0.38,-37.32c-1.64,-2.02 -3.2,-4.28 -4.9,-6.28zm-21.5,80.54c14.26,-0.33 23.42,14.99 22.72,28.03c0.69,17.31 -14.72,35.14 -32.88,31.97c-17.06,-2.09 -29.71,-21.99 -22.18,-38.07c5.25,-12.8 18.55,-21.5 32.34,-21.93z" id="path11194"/>
     <path stroke="null" opacity="0.09091" fill-rule="evenodd" fill="#4d4d4d" d="m179.7229,174.18201c0.5,18.16 0.53,36.48 0.06,54.65c-2.39,13.83 -16.09,21.69 -28.5,25.38c-11.85,4.44 -24.72,12.05 -26.97,25.59c-4.48,15.96 4.77,36.29 22.31,38.53c21.01,2.8 40.43,-16.99 39.51,-37.68c-0.34,-33.02 0.09,-66.16 -0.19,-99.13c-2.08,-2.08 -4.24,-6.33 -6.22,-7.34zm-20.94,81.97c13.98,-0.29 22.83,14.7 22.19,27.53c0.68,17.01 -14.4,34.54 -32.28,31.5c-17.08,-2.13 -29.48,-22.16 -21.54,-38.1c5.4,-12.26 18.28,-20.52 31.63,-20.93z" id="path11196"/>
     <path stroke="null" opacity="0.09091" fill-rule="evenodd" fill="#4d4d4d" d="m179.3729,173.15201c-0.16,4.02 0.42,8.16 0.16,12.24c-0.14,14.25 0.25,28.53 -0.16,42.76c-1.84,12.29 -13.14,20.68 -24.46,24.11c-10.83,4.29 -23.13,9.14 -28.63,20.13c-5.94,12.74 -4.4,29.57 5.97,39.47c8.76,8.72 23.51,9.3 33.87,3.22c11.5,-6.12 20.09,-18.28 20.31,-31.62c0.93,-13.39 -0.59,-26.82 0.1,-40.22l0,-61.85c-2.52,-2.47 -4.16,-6.31 -7.16,-8.24zm-20.59,83.5c11.34,-0.34 19.69,10.34 21.21,20.77c2.58,13.75 -3.98,29.11 -16.74,35.23c-11.33,5.41 -25.74,0.89 -32.75,-9.19c-5.88,-7.54 -6.9,-18.25 -2.59,-26.75c5.33,-11.72 17.97,-19.66 30.87,-20.06z" id="path11198"/>
     <path stroke="null" opacity="0.09091" fill-rule="evenodd" fill="#4d4d4d" d="m179.0329,223.71201c0.9,13.74 -11.27,23.98 -23.35,27.7c-12.5,4.89 -27.73,10.83 -31.43,25.17c-5.47,15.39 0.58,35.45 16.87,41.38c18.79,6.9 39.95,-8.19 44.75,-26.57c2.87,-14.67 0.31,-29.77 1.16,-44.62l0,-65.56c-3.48,-3.56 -9.78,-15.04 -8,-3.82l0,46.32zm-20.25,33.44c12.61,-0.32 20.94,12.67 21.06,24.24c1.62,16.09 -10.82,33.85 -28,33c-16.16,-0.13 -30.1,-17.16 -25.09,-33.06c3.79,-13.92 17.82,-23.75 32.03,-24.18z" id="path11200"/>
     <path stroke="null" opacity="0.09091" fill-rule="evenodd" fill="#4d4d4d" d="m179.1929,172.11201c-2.13,1.32 -0.22,4.8 -0.66,6.85c-0.12,16.32 0.23,32.66 -0.15,48.96c-1.73,11.81 -12.47,19.87 -23.35,23.22c-11.41,4.47 -24.51,9.63 -29.91,21.44c-5.73,12.8 -4.17,29.29 5.88,39.47c8.81,9.23 23.85,10.35 34.81,4.34c12.36,-6.28 21.5,-19.09 21.66,-33.24c0.84,-13.45 -0.61,-26.92 0.06,-40.38l0,-61.78c-2.88,-2.63 -4.46,-7.07 -8.03,-8.91c-0.11,0.01 -0.22,-0.02 -0.31,0.03zm-20.38,85.54c10.84,-0.34 18.79,10.07 20.18,19.96c2.49,13.3 -3.75,28.16 -16.18,34.13c-10.54,5.04 -24.16,1.12 -31.06,-8.28c-6.01,-7.27 -7.18,-17.81 -3.02,-26.21c5.2,-11.42 17.41,-19.18 30.08,-19.6z" id="path11202"/>
     <path stroke="null" opacity="0.09091" fill-rule="evenodd" fill="#4d4d4d" d="m179.1929,171.61201c-3.49,1.95 0.12,7.78 -1.16,10.94c-0.39,15.69 0.73,31.5 -0.44,47.13c-3.09,12.97 -16.35,19.32 -27.98,23.1c-12.22,4.5 -24.9,12.8 -27.24,26.52c-4.8,17.13 5.27,38.61 23.94,41.03c22.17,2.93 42.66,-17.61 41.82,-39.56c-0.28,-33.31 -0.04,-66.64 -0.1,-99.97c-3.15,-2.55 -4.75,-8.25 -8.84,-9.19zm-20.38,86.54c12.91,-0.19 20.8,13.9 20.16,25.56c0.68,16.05 -13.81,32.84 -30.72,29.34c-15.75,-2.41 -26.75,-21.19 -19,-35.72c5.2,-11.29 17.18,-18.74 29.56,-19.18z" id="path11204"/>
     <path stroke="null" opacity="0.09091" fill-rule="evenodd" fill="#4d4d4d" d="m179.0329,171.11201c-3.94,1.91 -0.27,8.02 -1.5,11.32c-0.39,15.68 0.73,31.6 -0.44,47.15c-3.05,12.5 -15.55,18.78 -26.78,22.35c-12.28,4.58 -25.54,12.53 -28.19,26.43c-5.25,17.26 4.37,39.21 23.19,42.29c22.19,3.8 43.74,-16.71 43.25,-38.85c0.15,-20.67 -0.3,-41.35 -0.03,-62.03c-0.3,-13.14 0.6,-26.79 -0.44,-39.62c-3.11,-2.63 -4.7,-8.45 -9.06,-9.04zm-20.19,87.54c12.98,-0.15 20.44,14.26 19.66,25.84c0.2,15.4 -13.87,31.47 -30.16,28.09c-15.36,-2.29 -26.32,-21.01 -18.62,-35.03c5.01,-11.06 16.99,-18.52 29.12,-18.9z" id="path11206"/>
     <path stroke="null" opacity="0.09091" fill-rule="evenodd" fill="#4d4d4d" d="m179.0329,170.61201c-4.6,1.69 -0.84,8.37 -2,11.91c-0.39,15.62 0.72,31.47 -0.44,46.97c-3.06,12.7 -16.05,18.64 -27.39,22.36c-12.13,4.55 -25.01,12.79 -27.55,26.36c-5.38,17.52 4.48,39.79 23.57,42.94c22.47,3.88 44.33,-16.95 43.84,-39.32c0.18,-20.34 -0.32,-40.7 -0.03,-61.06l0,-40.41c-3.52,-2.7 -5.19,-9.18 -10,-9.75zm-20.16,88.54c12.71,-0.11 19.88,14.04 19.13,25.37c0.16,15.09 -13.51,30.84 -29.56,27.56c-15.13,-2.29 -25.77,-20.54 -18.29,-34.31c5.01,-10.9 16.72,-18.25 28.72,-18.62z" id="path11208"/>
     <path stroke="null" opacity="0.09091" fill-rule="evenodd" fill="#4d4d4d" d="m178.9729,170.11201c-5.34,1.85 -1.18,9.44 -2.44,13.47c-0.46,15.39 0.85,30.95 -0.53,46.25c-3.32,12.33 -15.98,17.87 -26.98,21.55c-12.24,4.63 -25.22,12.87 -27.87,26.7c-5.26,17.43 4.13,39.6 23,43.35c23.03,4.78 45.92,-16.54 45.41,-39.57c0.21,-20.02 -0.34,-40.05 -0.03,-60.09l0,-41.59c-3.69,-2.87 -5.42,-9.64 -10.56,-10.07zm-20.06,89.54c12.57,-0.07 19.56,14.27 18.56,25.43c-0.09,14.91 -13.94,30.07 -29.56,26.41c-14.49,-2.71 -24.55,-20.06 -17.29,-33.53c4.99,-10.79 16.46,-17.92 28.29,-18.31z" id="path11210"/>
    </g>
    <path stroke="#00183d" fill-rule="evenodd" fill="#003b98" d="m336.0271,258.21201c-10.69,0.27 -22.49,7.88 -27.75,17c-7.01,12.15 -2.84,27.7 9.31,34.72c12.16,7.01 27.71,2.83 34.72,-9.32c7.02,-12.15 5.9,-32.98 -6.25,-40c-3.03,-1.75 -6.46,-2.49 -10.03,-2.4zm0.32,3c4.91,-0.06 9.67,2.04 12.65,6.03c8.32,12.23 5.8,32.62 -7.81,40.25c-12.41,7.51 -30.31,-0.59 -32.81,-14.88c-3.76,-15.87 11.88,-30.34 26.97,-31.37c0.32,-0.02 0.67,-0.03 1,-0.03z" id="path2258"/>
    <path stroke="null" fill-rule="evenodd" fill="#ffffff" fill-opacity="0.19608" d="m335.3471,259.55201c-10.15,0.25 -21.35,7.26 -26.35,15.66c-4.79,8.05 -4.09,17.7 0.97,24.9c-4.18,-7.15 -4.5,-16.28 -0.06,-23.96c4.93,-8.56 16,-15.69 26.03,-15.94c3.34,-0.09 6.55,0.6 9.41,2.25c3.15,1.82 5.52,4.63 7.15,8c-1.65,-3.67 -4.16,-6.75 -7.62,-8.69c-2.89,-1.62 -6.15,-2.3 -9.53,-2.22zm14.34,11.84c5.28,11.33 2.21,27.23 -9.44,33.57c-9.44,5.55 -22.23,1.84 -28.16,-6.63c5.41,9.57 18.88,14.07 28.69,8.13c11.82,-6.62 14.71,-23.49 8.91,-35.07z" id="path12365"/>
    <path stroke="null" fill-rule="evenodd" fill="#00183d" d="m335.9371,260.21201c-10.03,0.25 -21.11,7.4 -26.04,15.95c-6.59,11.4 -2.67,26 8.73,32.58c11.41,6.58 26,2.66 32.58,-8.74c6.59,-11.4 5.54,-30.95 -5.86,-37.54c-2.85,-1.64 -6.07,-2.34 -9.41,-2.25zm0.29,2.81c4.62,-0.05 9.08,1.91 11.88,5.66c7.8,11.47 5.44,30.61 -7.34,37.77c-11.64,7.05 -28.44,-0.56 -30.79,-13.96c-3.52,-14.9 11.15,-28.48 25.31,-29.44c0.31,-0.02 0.63,-0.03 0.94,-0.03z" id="path11214"/>
    <path stroke="#00183d" fill-rule="evenodd" fill="#003b98" d="m409.7071,258.21201c10.69,0.27 22.49,7.88 27.75,17c7.02,12.15 2.84,27.7 -9.31,34.72c-12.15,7.01 -27.7,2.83 -34.72,-9.32c-7.01,-12.15 -5.9,-32.98 6.25,-40c3.04,-1.75 6.47,-2.49 10.03,-2.4zm-0.31,3c-4.92,-0.06 -9.68,2.04 -12.66,6.03c-8.31,12.23 -5.8,32.62 7.82,40.25c12.4,7.51 30.31,-0.59 32.81,-14.88c3.76,-15.87 -11.88,-30.34 -26.97,-31.37c-0.33,-0.02 -0.67,-0.03 -1,-0.03z" id="path13132"/>
    <path stroke="null" fill-rule="evenodd" fill="#ffffff" fill-opacity="0.19608" d="m410.3971,259.55201c10.15,0.25 21.35,7.26 26.34,15.66c4.79,8.05 4.09,17.7 -0.96,24.9c4.17,-7.15 4.49,-16.28 0.06,-23.96c-4.94,-8.56 -16,-15.69 -26.03,-15.94c-3.35,-0.09 -6.56,0.6 -9.41,2.25c-3.16,1.82 -5.53,4.63 -7.16,8c1.65,-3.67 4.17,-6.75 7.63,-8.69c2.88,-1.62 6.15,-2.3 9.53,-2.22zm-14.34,11.84c-5.28,11.33 -2.21,27.23 9.43,33.57c9.44,5.55 22.23,1.84 28.16,-6.63c-5.4,9.57 -18.88,14.07 -28.69,8.13c-11.81,-6.62 -14.7,-23.49 -8.9,-35.07z" id="path13134"/>
    <path stroke="null" fill-rule="evenodd" fill="#00183d" d="m409.8071,260.21201c10.03,0.25 21.1,7.4 26.04,15.95c6.58,11.4 2.66,26 -8.74,32.58s-26,2.66 -32.58,-8.74s-5.54,-30.95 5.87,-37.54c2.85,-1.64 6.07,-2.34 9.41,-2.25zm-0.29,2.81c-4.62,-0.05 -9.08,1.91 -11.88,5.66c-7.8,11.47 -5.45,30.61 7.33,37.77c11.64,7.05 28.45,-0.56 30.79,-13.96c3.53,-14.9 -11.15,-28.48 -25.31,-29.44c-0.3,-0.02 -0.63,-0.03 -0.93,-0.03z" id="path13136"/>
   </g>
  </g>
 </g>
</svg>