<svg width="416" height="422" xmlns="http://www.w3.org/2000/svg"><defs><linearGradient x1=".281" y1=".958" x2=".454" y2=".947" id="a"><stop stop-color="#999" offset="0"/><stop stop-color="#444" offset="1"/></linearGradient><linearGradient x1=".628" y1="1.04" x2=".394" y2=".007" id="b"><stop stop-color="#ccc" offset="0"/><stop stop-color="#e6e6e6" offset=".155"/><stop stop-color="#f2f2f2" offset=".295"/><stop stop-color="#b3b3b3" offset=".5"/><stop stop-color="#e6e6e6" offset=".812"/><stop stop-color="#a0a0a0" offset="1"/></linearGradient><linearGradient x1="1.198" y1="1" x2=".508" y2="-.029" id="e"><stop stop-color="#666" offset="0"/><stop stop-color="#ccc" offset=".288"/><stop stop-color="#ccc" offset=".684"/><stop stop-color="#b3b3b3" offset="1"/></linearGradient><radialGradient r="34.271" gradientTransform="matrix(1 0 0 .77362 0 43.318)" cx="290.7" cy="191.35" gradientUnits="userSpaceOnUse" id="c"><stop stop-color="#fff" offset="0"/><stop stop-color="#fff" offset=".373"/><stop stop-color="#fff" stop-opacity="0" offset="1"/></radialGradient><radialGradient r="7.574" cx="286.82" cy="189.07" gradientUnits="userSpaceOnUse" fy="186.49" fx="286.66" id="d"><stop stop-color="#cbcbcb" offset="0"/><stop stop-color="#acacac" offset=".287"/><stop stop-color="#121212" offset="1"/></radialGradient></defs><path fill="none" d="M-1-1h418v424H-1z"/><g><g stroke="null"><path stroke="#ccc" fill-rule="evenodd" fill="url(#a)" d="M358.967 168.772l11.37-195.89 3.17 1.366 10.46 179.52-15 25-10-10v.004z" transform="rotate(44.9 407.04 -155.065) scale(1.4076)"/><path stroke="#4d4d4d" fill="none" d="M197.108 212.405l17.24-4.579" stroke-width="1.4076"/><path stroke="#000" stroke-linejoin="round" fill-rule="evenodd" stroke-width="2.8152" fill="#1a1a1a" d="M201.79 180.666l-1.951-.594-60.987 61.2c-29.808 29.91-63.742-23.778-103.52-3.802s-39.71 59.789-19.768 79.66 59.754 19.803 79.625-.138l103.334-103.694 3.267-32.632zM85.08 262.087c4.956 4.82 7.616 11.642 6.622 18.582-3.856 20.46-26.628 38.286-47.779 32.371-19.835-4.843-29.634-30.704-17.928-47.436 12.019-19.559 41.99-18.447 58.06-4.48.338.298.697.636 1.026.963z"/><path stroke="#000" fill-rule="evenodd" fill="#181818" d="M107.113 305.027l2 5.969-9.935 9.97-5.976-1.98 13.91-13.959zM115.258 313.145l-5.975-1.98-9.936 9.97 2.001 5.969 13.91-13.96z" stroke-width="1.4076"/><path stroke="gray" fill-rule="evenodd" fill="url(#b)" d="M387.137 168.772l-13.72-198.72-2.72 1.792-8.56 181.93 15 25 10-10v-.002z" transform="rotate(44.9 407.04 -155.065) scale(1.4076)"/><path fill-rule="evenodd" fill="url(#c)" d="M383.717 119.212l-19.97.06-1.53 32.41 14.5 19.47 10-8.44-3-43.5z" transform="rotate(44.9 407.04 -155.065) scale(1.4076)"/><path stroke="#1a1a1a" fill-rule="evenodd" fill="url(#d)" d="M380.129 142.842a7.074 7.074 0 11-14.15 0 7.074 7.074 0 1114.15 0z" transform="rotate(44.9 407.04 -155.065) scale(1.4076)"/><path fill-rule="evenodd" fill="#fff" d="M411.324 8.609l-4.481-.927-14.817 13.552-116.44 133.357c-3.566 4.097-2.138 6.872.952 9.335L411.323 8.61l.001-.001z" stroke-width="1.4076"/><path fill-rule="evenodd" fill="url(#e)" d="M373.407-29.947l-2.72 1.781-.47 9.876 8.53 129.4c.24 3.62 2.15 4.42 4.69 4.25l-10.03-145.31v.003z" transform="rotate(44.9 407.04 -155.065) scale(1.4076)"/><path stroke="gray" stroke-linejoin="round" stroke-width=".999396" fill="none" d="M227.569 220.384L411.335 8.618l-4.492-.916L217.544 180.59l-9.884 39.83 19.907-.035.002-.002z"/><path stroke="#000" stroke-linejoin="round" fill-rule="evenodd" stroke-width="2.8152" fill="#1a1a1a" d="M239.28 218.025l-32.621 3.38L103.325 325.1c-19.871 19.94-19.802 59.754.139 79.625s59.754 19.803 79.591-20.045-33.969-73.595-4.161-103.506l60.986-61.2-.6-1.95zm-80.985 117.022c.329.328.628.646.937.993 14.022 16.02 15.269 46.018-4.249 58.105-16.69 11.764-42.626 2.015-47.527-17.793-6-21.14 11.758-43.964 32.195-47.902 6.945-1.007 13.798 1.648 18.644 6.597z"/><g fill-rule="evenodd" fill="#4d4d4d"><path opacity=".091" d="M145.522 247.54c-14.503 16.528-40.028 13.964-57.583 4.082-6.604-3.204.689 1.024 2.503 2.892 16.088 13.17 11.634 38.817-2.019 52.079-7.448 9.468-21.711 15.405-31.543 16.378 23.381.566 39.142-19.159 53.807-34.572 26.17-26.6 53.158-52.685 78.96-79.475 2.561-9.55-2.624-3.31-7.114 1.476l-37.011 37.14zM12.073 278.936c-3.461 12.866 4.968 29.055 13.597 34.594-9.968-8.603-14.74-22.1-13.528-34.962l-.069.368z" stroke-width="1.4076"/><path opacity=".091" d="M191.195 200.65c-17.687 17.19-34.296 35.733-52.642 52.128-16.662 10.937-37.892 5.261-54.191-3.45-13.796-6.196-32.776-11.677-45.842-4.09 20.421-7.53 47.257-.4 58.628 18.879 9.712 21.522-6.519 46.363-26.878 54.63-17.663 8.073-41.35 3.108-51.564-14.502-7.086-11.433-7.898-26.272-2.545-38.504-10.303 16.48-5.235 40.489 11.842 50.372 20.118 12.735 48.787 9.192 64.86-8.513 32.182-32.971 65.021-65.327 97.472-98.05.035-2.667 1.23-7.756.86-8.9z" stroke-width="1.4076"/><path opacity=".091" d="M192.405 197.941c.13.07.01-.09 0 0zc-17.287 18.145-35.142 36.42-53.436 53.622-16.104 11.454-37.473 6.116-53.602-2.565-15.838-7.158-35.974-12.936-51.482-2.16-20.067 10.705-31.733 39.242-17.445 59.123 17.031 23.69 55.671 24.339 75.442 3.442 20.955-20.769 41.382-42.084 62.467-62.744 12.06-12.602 25.527-24.62 36.701-37.588.372-3.643 1.062-7.447 1.355-11.13zm-101.46 58.94c14.545 13.84 8.456 38.216-5.198 50.522-16.511 17.945-49.591 20.411-64.548-.793-14.933-19.035-7.774-51.445 15.711-59.996 17.953-7.546 39.858-3.005 54.034 10.268z" stroke-width="1.4076"/><path opacity=".091" d="M192.8 196.487a1444.905 1444.905 0 01-54.24 54.549c-16.124 11.414-37.593 5.64-53.633-3.012-16.227-7.347-36.62-12.547-52.316-1.283-20.325 11.462-31.302 40.923-16.04 60.584 18.167 23.667 57.193 23.23 76.833 1.687 32.47-33.26 65.826-65.875 98.305-99.026-.007-4.14 2.062-10.524 1.091-13.499zM90.477 257.41c14.227 13.601 8.157 37.34-5.229 49.497-16.222 17.635-48.676 20.13-63.482-.666-14.914-19.095-7.376-51.386 16.379-59.39 17.565-6.858 38.614-2.297 52.332 10.559z" stroke-width="1.4076"/><path opacity=".091" d="M193.475 195.112c-4.154 3.85-7.69 8.554-12.002 12.363-14.299 14.07-28.098 28.695-42.646 42.475-14.046 10.426-33.648 7.564-48.343-.264-15.06-6.483-32.143-13.868-48.547-8.376-18.58 6.801-33.767 25.112-33.264 45.286.07 17.398 14.2 32.632 30.57 36.863 17.547 5.325 38.194 1.735 51.668-11.347 14.231-12.426 26.06-27.327 40.062-40.002l61.453-61.668c-.058-4.966 2.122-10.424 1.049-15.33zM89.98 257.908c11.644 10.929 9.358 29.874.51 41.783-11.09 16.273-32.891 25.07-51.695 18.494-16.672-5.863-26.548-24.688-23.522-41.703 1.629-13.36 11.253-25.052 23.996-29.245 16.96-6.39 37.451-1.747 50.71 10.671z" stroke-width="1.4076"/><path opacity=".091" d="M142.9 245.186c-12.755 14.593-35.063 12.711-50.804 4.418-17.322-7.544-38.409-16.754-56.346-6.133-20.745 9.91-34.644 35.922-24.294 58.02 11.878 25.55 47.97 31.528 71.017 17.971 17.438-11.775 29.889-29.374 45.491-43.335l65.14-65.367c.067-7.008 5.192-24.713-4.181-11.758L142.9 245.186zm-53.416 13.221c12.89 12.21 8.29 33.438-3.087 45.094-14.371 17.652-44.421 23-60.706 5.082-15.983-16.186-12.961-47.017 7.832-57.892 17.61-10.113 41.365-5.974 55.96 7.716z" stroke-width="1.4076"/><path opacity=".091" d="M194.329 193.897c-3.436-.8-4.989 4.567-7.465 6.174-16.335 16.152-32.22 32.792-48.795 48.666-13.46 10.057-32.176 7.422-46.353-.048-15.817-6.88-34.006-14.752-51.124-8.342-18.431 7.07-33.26 25.06-33.354 45.196-.387 17.957 13.496 34.017 30.395 38.914 18.563 6.02 40.404 2.329 54.623-11.62 14.201-12.576 26.14-27.447 40.18-40.202l61.385-61.598c-.258-5.484 2.578-11.48.846-16.862-.12-.1-.199-.239-.338-.278zM89.017 258.935c11.146 10.432 8.73 28.71.288 39.952-10.732 15.735-31.718 24.351-50.043 17.953-15.517-5.447-25.202-22.888-22.742-39.116 1.231-13.22 10.537-24.892 23.031-29.134 16.532-6.22 36.416-1.825 49.466 10.345z" stroke-width="1.4076"/><path opacity=".091" d="M194.825 193.398c-5.417-1.523-7.61 7.876-12.026 9.755-15.978 15.257-30.57 32.133-47.267 46.554-15.967 9.862-35.498 3.018-50.85-4.768-16.654-7.655-37.544-11.978-53.509-.624-21.806 12.31-33.108 43.733-16.897 64.696 19.193 24.95 60.031 24.828 81.003 2.108 32.817-33.49 66.173-66.483 99.23-99.775-.608-5.672 3.46-12.945.316-17.946zM88.52 259.434c13.06 12.638 6.928 34.526-5.295 45.515-15.27 16.679-46.4 19.022-59.782-1.27-13.309-18.051-5.617-47.705 16.547-54.492 16.402-6.09 35.75-1.615 48.53 10.247z" stroke-width="1.4076"/><path opacity=".091" d="M195.163 192.74c-5.827-2.01-8.238 7.729-12.743 9.797-15.969 15.246-30.67 32.232-47.287 46.574-15.46 9.433-34.164 3.274-48.908-4.324-16.794-7.635-37.914-12.884-54.367-1.657-22.384 11.992-34.602 43.436-18.897 65.206 18.349 25.837 60.214 26.8 81.723 4.237 20.687-20.46 40.786-41.526 61.603-61.877 12.756-13.399 27.216-26.114 38.927-39.94-.488-5.712 3.71-13.095-.051-18.015zm-107.11 67.222c13.091 12.747 6.211 34.527-6.072 45.298C66.879 320.813 36.884 322.856 24 303.3c-13.04-17.544-5.367-47.099 16.24-53.427 15.985-6.05 35.341-1.584 47.813 10.09z" stroke-width="1.4076"/><path opacity=".091" d="M195.66 192.242c-6.266-2.885-9.154 7.51-13.828 9.888-15.91 15.186-30.55 32.093-47.108 46.394-15.67 9.623-34.523 2.638-49.526-4.92-16.615-7.516-37.644-12.097-53.66-1.091-22.772 12.123-35.068 44.124-19.164 66.232 18.549 26.195 61.04 27.146 82.779 4.355 20.389-20.101 40.12-40.898 60.638-60.91l40.151-40.29c-.826-6.19 3.947-14.31-.283-19.658zM87.585 260.491c12.782 12.518 5.872 33.75-6.133 44.302-14.834 15.205-44.113 17.326-56.857-1.892-12.81-17.316-5.285-46.084 15.854-52.381 15.826-5.89 34.804-1.584 47.136 9.97z" stroke-width="1.4076"/><path opacity=".091" d="M196.096 191.684c-7.162-3.461-10.556 8.24-15.816 11.006-15.75 14.888-29.904 31.703-46.482 45.587-15.561 8.995-33.688 1.94-48.312-5.32-16.805-7.546-37.934-12.227-54.317-1.07-22.563 12.152-35.229 43.586-20.14 66.074 18.213 27.649 62.219 29.135 84.593 5.666 20.1-19.752 39.454-40.27 59.674-59.943l41.324-41.467c-.828-6.528 4.174-14.997-.524-20.533zM87.13 261.029c12.603 12.42 5.324 33.662-6.761 43.796-14.904 14.777-43.776 16.13-55.714-3.038-11.755-17.1-4.546-44.394 16.076-50.61 15.696-5.801 34.217-1.514 46.4 9.852z" stroke-width="1.4076"/></g><g fill-rule="evenodd" fill="#4d4d4d"><path opacity=".091" d="M172.92 274.844c-16.477 14.56-13.824 40.076-3.88 57.596 3.226 6.594-1.027-.685-2.901-2.493-13.226-16.042-38.858-11.498-52.072 2.2-9.442 7.482-15.33 21.765-16.268 31.6-.648-23.378 19.022-39.208 34.384-53.926 26.51-26.263 52.5-53.341 79.2-79.236 9.54-2.595 3.319 2.611-1.451 7.119l-37.011 37.14zM141.99 408.4c-12.854 3.506-29.073-4.867-34.641-13.476 8.636 9.938 22.151 14.662 35.009 13.405l-.369.07z" stroke-width="1.4076"/><path opacity=".091" d="M219.651 229.008c-17.129 17.746-35.613 34.42-51.944 52.822-10.88 16.7-5.13 37.911 3.638 54.18 6.245 13.774 11.792 32.735 4.25 45.827 7.46-20.447.236-47.259-19.083-58.562-21.555-9.637-46.34 6.68-54.536 27.068-8.012 17.691-2.964 41.361 14.681 51.513 11.458 7.047 26.3 7.807 38.513 2.411-16.444 10.36-40.47 5.376-50.413-11.667-12.805-20.073-9.362-48.755 8.287-64.89 32.86-32.295 65.1-65.247 97.71-97.811 2.668-.045 7.752-1.258 8.897-.891z" stroke-width="1.4076"/><path opacity=".091" d="M222.356 227.789c-.07-.13.09-.01 0 0zc-18.085 17.35-36.298 35.267-53.435 53.621-11.398 16.144-5.986 37.494 2.75 53.594 7.214 15.813 13.062 35.928 2.34 51.474-10.635 20.104-39.13 31.868-59.062 17.65-23.748-16.949-24.532-55.586-3.705-75.43 20.697-21.027 41.94-41.527 62.527-62.684 12.56-12.105 24.53-25.613 37.46-36.833 3.642-.384 7.443-1.087 11.125-1.392zM163.77 329.453c-13.89-14.497-38.245-8.324-50.503 5.373-17.887 16.574-20.238 49.663 1.018 64.546 19.086 14.866 51.471 7.594 59.94-15.92 7.484-17.98 2.867-39.868-10.455-53.999z" stroke-width="1.4076"/><path opacity=".091" d="M223.809 227.388a1444.905 1444.905 0 00-54.36 54.43c-11.358 16.163-5.508 37.612 3.199 53.622 7.403 16.2 12.674 36.576 1.464 52.312-11.39 20.364-40.813 31.443-60.527 16.249-23.73-18.084-23.43-57.11-1.955-76.826 33.147-32.585 65.646-66.054 98.684-98.649 4.14-.007 10.517-2.098 13.495-1.138zm-60.567 102.534c-13.65-14.18-37.368-8.027-49.478 5.401-17.579 16.285-19.96 48.746.887 63.48 19.146 14.847 51.411 7.197 59.332-16.585 6.798-17.59 2.163-38.623-10.74-52.296z" stroke-width="1.4076"/><path opacity=".091" d="M225.181 226.709c-3.835 4.167-8.526 7.718-12.321 12.045-14.02 14.347-28.596 28.197-42.326 42.793-10.377 14.082-7.447 33.674.432 48.342 6.536 15.038 13.98 32.095 8.545 48.517-6.736 18.604-24.994 33.855-45.17 33.422-17.398-.01-32.68-14.087-36.97-30.442-5.385-17.529-1.867-38.188 11.168-51.707 12.377-14.275 27.236-26.155 39.862-40.2l61.454-61.669c4.967.041 10.417-2.158 15.326-1.101zM162.746 330.42c-10.97-11.607-29.906-9.255-41.785-.366-16.234 11.146-24.955 32.98-18.313 51.76 5.921 16.65 24.78 26.462 41.784 23.376 13.355-1.675 25.013-11.34 29.161-24.097 6.33-16.982 1.617-37.457-10.847-50.673z" stroke-width="1.4076"/><path opacity=".091" d="M175.284 277.458c-14.55 12.805-12.59 35.107-4.241 50.818 7.604 17.296 16.888 38.35 6.329 56.325-9.838 20.78-35.801 34.769-57.935 24.496-25.59-11.79-31.695-47.86-18.219-70.955 11.715-17.478 29.27-29.99 43.177-45.641l65.14-65.367c7.007-.092 24.695-5.278 11.772 4.14l-46.023 46.184zm-13.035 53.461c-12.255-12.848-33.467-8.173-45.083 3.244-17.602 14.433-22.845 44.5-4.87 60.723 16.24 15.927 47.06 12.798 57.863-8.033 10.052-17.645 5.83-41.386-7.91-55.934z" stroke-width="1.4076"/><path opacity=".091" d="M226.394 225.85c.812 3.433-4.55 5.005-6.148 7.486-16.096 16.391-32.68 32.335-48.497 48.965-10.01 13.494-7.31 32.201.21 46.352 6.935 15.794 14.87 33.954 8.52 51.095-7.005 18.456-24.945 33.347-45.08 33.511-17.955.45-34.064-13.377-39.02-30.26-6.084-18.542-2.469-40.395 11.431-54.662 12.526-14.245 27.356-26.235 40.061-40.321l61.384-61.598c5.485.24 11.472-2.618 16.86-.905.1.119.239.198.279.338zm-64.672 105.538c-10.47-11.11-28.74-8.63-39.953-.15-15.697 10.787-24.24 31.803-17.778 50.106 5.5 15.498 22.976 25.122 39.195 22.606 13.216-1.278 24.855-10.624 29.053-23.133 6.162-16.553 1.698-36.422-10.517-49.43z" stroke-width="1.4076"/><path opacity=".091" d="M226.89 225.352c1.543 5.412-7.85 7.638-9.713 12.06-15.2 16.032-32.026 30.682-46.389 47.429-9.806 16.002-2.894 35.508 4.946 50.832 7.713 16.629 12.108 37.503.81 53.508-12.235 21.848-43.617 33.26-64.637 17.122-25.016-19.106-25.037-59.945-2.39-80.995 33.375-32.934 66.252-66.404 99.429-99.576 5.674.587 12.933-3.507 17.945-.38zm-65.665 106.534c-12.683-13.016-34.55-6.807-45.496 5.454-16.626 15.327-18.86 46.465 1.477 59.777 18.098 13.246 47.725 5.451 54.435-16.737 6.033-16.423 1.49-35.754-10.416-48.494z" stroke-width="1.4076"/><path opacity=".091" d="M227.547 225.012c2.03 5.82-7.7 8.265-9.752 12.778-15.19 16.02-32.125 30.781-46.409 47.448-9.379 15.493-3.155 34.175 4.494 48.892 7.694 16.768 13.015 37.87 1.847 54.362-11.915 22.425-43.316 34.752-65.14 19.124-25.901-18.26-27.01-60.12-4.522-81.709 20.387-20.758 41.384-40.93 61.662-61.817 13.355-12.803 26.02-27.307 39.805-39.066 5.714.468 13.082-3.755 18.015-.012zm-66.848 107.343c-12.793-13.046-34.549-6.09-45.277 6.23-15.5 15.156-17.439 45.158 2.161 57.974 17.59 12.978 47.118 5.203 53.371-16.426 5.994-16.005 1.461-35.347-10.255-47.778z" stroke-width="1.4076"/><path opacity=".091" d="M228.044 224.514c2.907 6.255-7.48 9.18-9.84 13.862-15.13 15.962-31.986 30.662-46.23 47.269-9.568 15.703-2.518 34.532 5.093 49.508 7.573 16.59 12.228 37.602 1.277 53.656-12.043 22.814-44.001 35.222-66.165 19.395-26.259-18.458-27.358-60.946-4.643-82.763 20.03-20.46 40.758-40.263 60.699-60.85l40.15-40.292c6.193.806 14.297-3.996 19.659.215zm-67.872 108.31c-12.563-12.738-33.772-5.754-44.281 6.288-15.153 14.886-17.172 44.172 2.09 56.85 17.36 12.749 46.102 5.124 52.326-16.037 5.835-15.846 1.462-34.81-10.135-47.101z" stroke-width="1.4076"/><path opacity=".091" d="M228.6 224.075c3.486 7.15-8.203 10.585-10.95 15.855-14.833 15.801-31.6 30.014-45.426 46.64-8.94 15.592-1.822 33.695 5.49 48.294 7.603 16.778 12.357 37.89 1.258 54.312-12.074 22.605-43.464 35.38-66.004 20.37-27.712-18.116-29.351-62.117-5.96-84.572 19.682-20.17 40.132-39.594 59.735-59.883l41.323-41.468c6.53.805 14.982-4.226 20.534.452zm-68.965 109.208c-12.463-12.56-33.68-5.207-43.772 6.914-14.725 14.955-15.978 43.832 3.232 55.702 17.14 11.696 44.41 4.392 50.554-16.252 5.746-15.716 1.394-34.221-10.014-46.364z" stroke-width="1.4076"/></g><path stroke="#00183d" fill-rule="evenodd" fill="#003b98" d="M87.743 258.778c-10.927-10.352-30.254-14.489-44.56-10.622-19.061 5.15-30.354 24.797-25.215 43.868 5.16 19.072 24.817 30.354 43.878 25.205 19.072-5.14 38.652-27.02 33.512-46.092-1.282-4.755-3.966-8.901-7.615-12.359zm-2.662 3.31c4.955 4.818 7.615 11.641 6.621 18.58-3.856 20.461-26.628 38.287-47.779 32.372-19.835-4.843-29.634-30.704-17.928-47.436 12.019-19.559 41.99-18.447 58.06-4.48.338.298.697.636 1.026.963z" stroke-width="1.4076"/><path fill-rule="evenodd" fill="#fff" fill-opacity=".196" d="M85.733 259.439c-10.368-9.836-28.5-13.975-41.832-10.568-12.774 3.267-21.664 13.585-23.773 25.79 2.936-11.281 11.689-20.702 23.747-23.948 13.42-3.636 31.542.254 41.79 9.97 3.42 3.229 5.935 7.106 7.147 11.593 1.333 4.944.904 10.101-.82 15.08 2.002-5.298 2.56-10.863 1.037-16.235-1.271-4.487-3.846-8.404-7.296-11.682zm2.534 26.053c-5.993 16.543-24.852 29.346-42.767 24.092-14.927-3.846-23.993-20.253-21.49-34.59-4.114 14.917 4.845 32.787 20.528 36.612 18.363 5.143 38.006-8.805 43.729-26.114z" stroke-width="1.4076"/><path fill-rule="evenodd" fill="#00183d" d="M85.666 260.683c-10.25-9.716-28.4-13.596-41.811-9.97-17.898 4.819-28.496 23.27-23.667 41.158 4.838 17.897 23.28 28.485 41.168 23.657 17.897-4.819 36.275-25.354 31.456-43.252-1.212-4.467-3.727-8.364-7.146-11.593zm-2.503 3.09c4.656 4.54 7.155 10.926 6.221 17.447-3.62 19.186-24.99 35.925-44.846 30.366-18.61-4.536-27.8-28.816-16.829-44.512 11.295-18.353 39.415-17.317 54.487-4.205.329.288.658.596.967.904z" stroke-width="1.4076"/><path stroke="#00183d" fill-rule="evenodd" fill="#003b98" d="M161.206 331.986c10.39 10.89 14.594 30.203 10.777 44.522-5.073 19.09-24.691 30.44-43.78 25.367-19.08-5.082-30.43-24.7-25.358-43.79 5.083-19.079 26.886-38.745 45.976-33.672 4.77 1.276 8.924 3.946 12.385 7.573zm-3.29 2.683c-4.846-4.948-11.679-7.584-18.614-6.566-20.437 3.937-38.194 26.76-32.195 47.9 4.901 19.81 30.807 29.528 47.498 17.764 19.517-12.087 18.3-42.054 4.278-58.074-.31-.348-.638-.696-.967-1.024z" stroke-width="1.4076"/><path fill-rule="evenodd" fill="#fff" fill-opacity=".196" d="M160.562 334.008c9.872 10.334 14.074 28.451 10.703 41.785-3.223 12.785-13.509 21.711-25.698 23.872 11.262-2.985 20.653-11.77 23.867-23.83 3.58-13.442-.364-31.54-10.116-41.756-3.25-3.418-7.137-5.92-11.618-7.106-4.959-1.325-10.114-.878-15.087.862 5.291-2.02 10.864-2.586 16.241-1.083 4.482 1.247 8.418 3.818 11.708 7.256zm-26.062-2.443c-16.522 6.05-29.259 24.954-23.952 42.84 3.897 14.913 20.336 23.922 34.664 21.37-14.893 4.176-32.804-4.731-36.683-20.4-5.198-18.335 8.683-38.027 25.971-43.81z" stroke-width="1.4076"/><path fill-rule="evenodd" fill="#00183d" d="M159.318 334.08c9.752 10.214 13.685 28.342 10.116 41.776-4.767 17.904-23.182 28.566-41.086 23.8s-28.566-23.182-23.8-41.086 25.228-36.363 43.152-31.597c4.471 1.197 8.377 3.698 11.618 7.106zm-3.081 2.513c-4.557-4.64-10.951-7.117-17.469-6.16-19.173 3.686-35.847 25.104-30.22 44.941 4.602 18.595 28.923 27.71 44.57 16.674 18.325-11.349 17.18-39.475 4.016-54.501-.279-.318-.598-.656-.897-.954z" stroke-width="1.4076"/></g></g></svg>