<svg xmlns="http://www.w3.org/2000/svg" viewBox="0 0 210.7 219.56"><g color="#000"><path d="M111.79 8.57c-3.923.462-7.941 1.946-11.469 3.406-3.527 1.46-6.695 2.95-7.875 3.344-2.497.832-3.243 2.762-3.906 4.469-.664 1.707-1.078 3.578-1.406 5.406-.484 2.69-.564 4.05-.657 5.219a8.274 8.274 0 00-1.5 1.281c-.966 1.067-1.737 2.338-2.468 3.75-1.463 2.824-2.747 6.301-3.844 9.75-1.61 5.06-2.59 9.1-3.125 11.406l-20.97.97c-.5-.378-.835-.679-1.969-1.406-1.703-1.093-3.809-2.366-6.219-2.906-2.228-.5-4.767-.403-7.031-.313-2.007.08-3.298.186-3.656.219-.424-.105-2.57-.64-5.719-1.281-3.443-.702-7.403-1.438-10.438-1.438-3.256 0-6.274 1.203-8.625 2.938S6.6 57.444 6.6 60.602c0 2.3-.7 6.425-.906 7.688-.588.382-.89.544-1.812 1.281-.783.626-1.587 1.316-2.313 2.188-.726.871-1.562 1.92-1.562 3.718v9.375c0 2.846 1.47 4.278 2.562 5.688.425.549.486.565.844.969-.366.925-.658 1.633-1.281 3.5-.468 1.402-.93 2.885-1.25 4.312s-.616 2.642-.281 4.313c.465 2.329 1.792 4.564 3.875 6.719 2.082 2.154 5.025 4.087 8.687 4.468 3.484.363 8.71-.17 13.844-.906 2.567-.368 5.057-.808 7.125-1.25s3.526-.722 4.938-1.437c1.38-.7 1.992-1.602 2.625-2.5.632-.899 1.157-1.873 1.625-2.782.455-.885.502-1.052.78-1.687 1.401-.091 5.462-.362 11.22-.719 6.672-.414 14.129-.812 14.906-.812-.221 0 1.542.63 2.812 1.593.531.403.557.478.938.813-.99 3.08-9.547 29.65-12.75 43.53-3.456 14.977-6.125 47.848-6.125 55.782 0 4.353 1.983 7.708 4.625 9.375s5.531 1.906 7.75 1.906c1.5 0 7.4.416 13.469.625 6.068.21 12.286.327 16.469-.719 6.767-1.691 11.375-3.406 11.375-3.406a3 3 0 001.94-3.03l-1.656-21.28V175.758c2.076-.202 7.23-.715 14.812-1.53 4.487-.484 9.079-1 12.78-1.47 1.851-.234 3.482-.452 4.782-.656 1.3-.203 2.096-.313 3.031-.625 2.86-.953 4.832-.972 6.969-.281.425.137 1.86 1.172 2.875 2.219.739.763.994 1.112 1.25 1.437.095.797.764 6.461 1.531 13.281.41 3.643.82 7.38 1.125 10.406.306 3.027.5 5.576.5 5.906 0 2.827 1.128 5.768 2.687 8.72.78 1.475 1.701 2.852 2.813 4.03s2.528 2.375 4.687 2.375c1.651 0 9.8.012 18.031-.125 4.116-.068 8.24-.187 11.625-.343s5.605-.2 7.532-.75c1.907-.545 3.334-2.142 3.937-3.688.604-1.545.698-3.084.656-4.625-.083-3.08-.841-6.24-1.406-8.5-.429-1.716-3.006-14.353-5.344-26.062-2.229-11.165-4.121-20.844-4.312-21.812.371-.613.714-1.14 1.437-2.594 1.038-2.083 2.25-4.434 2.25-7.25 0-1.491-.287-4.15-.718-8.343s-1.006-9.522-1.625-14.938c-1.24-10.831-2.593-21.745-3.22-25.188-.887-4.886.651-17.202-2.187-33.094-1.423-7.973-4.236-17.785-8.093-26.281-3.857-8.497-8.522-15.924-15.344-18.438-5.674-2.09-12.081-3.001-17.688-3.563-5.607-.562-10.605-.843-12.438-1.25-2.493-.554-8.166-1.773-14.094-2.781-5.929-1.009-11.887-1.874-16.125-1.375z"/><path d="M113.07 14.49c-.187-.5 1.125-5.312 1.125-5.312s-3.937.843-4.187-.688c-.113-.69 2.312-3.625 2.812-4.687s2.188-5.375 4.5-3.188 4 3.938 4.063 5-3.75 2.938-3.75 2.938.468 5.2-.438 6.312c-1.01 1.241-4.125-.375-4.125-.375z" fill="#e9ddaf"/><path d="M117.04.41c.1.61.296 1.588.656 2.219.5.875.438 3-.312 3.187s-5.5 1.688-5.625 2.563 2.531.031 2.531.031c-.076.72-.217 1.291-.313 1.906.912.057 2.136.61 2.282 1.438.126.713-.022 2.337-.157 3.562.447-.018.836-.12 1.094-.437.906-1.112.438-6.313.438-6.313s3.812-1.875 3.75-2.937-1.75-2.813-4.063-5c-.092-.088-.19-.152-.281-.219z" fill="#786721"/><path d="M98.62 10.99s-4.96 1.654-5.925 1.516c-.965-.138-.435-1.583-.172-2.308.725-2 3.031-3.652 4.443-4.582 1.061-.699 6.615-.276 7.58.413.964.69 1.377 2.067.413 2.618-.965.552-6.339 2.343-6.339 2.343z" fill="#c83737"/><path d="M104.1 5.84c.204.439.536 1.173.406 1.406-.172.31-1.19.931-1.5 1-.31.07-3.375.193-4.719.469-1.343.276-3.617 2.174-4.03 2.656-.414.482.086.56.5.594.684-.21 2.526-.654 4.187-1.063.529-.177 5.12-1.729 6.031-2.25.965-.55.527-1.936-.438-2.625-.097-.07-.255-.124-.437-.187z" fill="maroon"/><path d="M97.73 10.74s1.171 3.962 1.31 4.788c-.276.414 2.066.965 2.066.965l3.17-1.791s-1.338-1.288-2.205-1.792c-.907-.525-2.102-2.928-2.102-2.928-.579-.358-2.044.132-2.239.758z" fill="#f4eed7"/><path d="M99.41 9.88c-.666.016-1.542.406-1.687.875 0 0 .245.818.468 1.594.407-.131.882-.27 1.156-.25.483.034 2.38.818 3.063 1.781.32.45.312 1.625.312 1.625l.375-.125 1.188-.656s-1.351-1.31-2.219-1.813c-.906-.525-2.094-2.906-2.094-2.906-.144-.09-.34-.13-.562-.125z" fill="#786721"/><path d="M122.1 12.44s.655-.727.53-3.977c.563 1.437.62 4.507.62 4.507s.915-.865.353-2.74c.562.438 1.502 2.917 1.502 2.917l1.591-1.06s-.944-2.534-1.944-4.597c.562.563 2.647 4.406 2.21 3.094 0 0 .073-.522-.177-2.21 1.125 1.375 2.032 4.42 2.032 4.42l2.652-.089s-.638-2.73-1.326-5.48c1.938 3.125 2.122 4.95 2.122 4.95l1.679 1.502c1.51-.983 1.11-2.921 1.414-4.507l.177 1.767c.997 2.192.258-1.98.353-3.093l1.768 5.038 3.36-.796.441-4.507.088 6.717 2.299.265c.323-.954-.125-2.063-.62-3.182.772.948 1.545 1.895 1.503 3.005.275-.824.699-1.65.177-2.474.6.546.939 1.144.707 1.856l3.113-.914c.882.65.36-2.442.334-4.213l.796 1.414.619-3.093c-.374 4.61.016 4.894.088 6.983l1.326.353.707-2.74.353 4.685 1.326.088-.088-3.712 1.944 3.535 1.326-.884-.707-3.977 2.74 5.392-.177-3.27 2.122 3.358s2.563.796 2.033.796c-.53 0-1.326-2.74-1.326-2.74l2.74 3.623-1.326 1.061-41.366-6.452z" fill="#4a0"/><path d="M89.25 32.48c-5.512.276-11.299 27.008-11.299 27.008L53.699 60.59s-4.61-3.65-7.992-4.41c-3.069-.688-10.197 0-10.197 0s-11.024-2.755-15.984-2.755c-4.96 0-9.922 3.858-9.922 7.165s-1.102 9.37-1.102 9.37-5.512 3.308-5.512 5.512v9.37c0 2.205 3.859 6.064 3.859 6.064s-3.859 9.37-3.308 12.125c.552 2.756 4.412 8.246 9.922 8.82 5.502.572 21.404-1.865 24.252-3.308 1.967-.996 4.41-7.165 4.41-7.165s25.354-1.654 28.11-1.654c2.755 0 7.165 4.41 7.165 4.41S67.478 135 64.172 149.33c-3.307 14.33-6.063 47.953-6.063 55.118 0 7.165 5.511 8.268 9.37 8.268s22.599 1.653 29.213 0c6.614-1.654 11.024-3.307 11.024-3.307l-1.654-21.496v-14.882s34.173-3.308 37.481-4.41c3.307-1.102 6.075-1.163 8.82-.275 2.842.919 6.062 5.236 6.062 5.236s3.307 27.559 3.307 30.866c0 3.307 3.859 12.126 7.166 12.126s32.52 0 36.378-1.103c3.858-1.102 2.204-8.819 1.102-13.228-1.102-4.41-9.921-49.055-9.921-49.055s3.858-6.063 3.858-9.37-4.41-41.89-5.512-47.953c-1.102-6.063.551-17.638-2.204-33.07s-11.024-38.584-21.496-42.442c-10.473-3.858-24.803-3.582-29.764-4.685-4.961-1.102-22.437-4.932-29.213-4.134s-15.433 5.512-18.74 6.614c-3.308 1.103-4.134 14.331-4.134 14.331z" fill="#b8b4ab"/><path d="M89.25 32.47c-5.512.276-11.312 27.031-11.312 27.031h-.188l3.47 1 8.093-25.156zM19.531 53.439c-4.96 0-9.937 3.85-9.937 7.156 0 2.917-.768 7.408-.97 8.563.41-.04.702-.069 1.25-.125.276-2.185 1.16-8.673 2.25-10.656 1.748-3.176 4.463-3.494 5.907-3.47 2.523.045 3.797-.353 4.594-1.25-1.148-.138-2.226-.218-3.094-.218zm21.594 2.438c-2.53.03-4.803.234-5.312.28l2.825 2.632-8.482 5.65 1.966 26.97 4.601-1.05c-2.423-6.766-2.037-15.075-2.078-22.005l4.776-.94c.362-1.539 3.653-5.714 7.017-7.85-.316-1.148-.689-2.278-1.063-3.407-1.138-.207-2.692-.3-4.25-.281zM9.75 70.002l-1.437.062C8.135 70.171 3 73.302 3 75.47v9.375c.43 1.36 1.225.49 2.594.25-.475-2.493-.369-9.862.344-10.812.712-.95 3.812-4.281 3.812-4.281zm-3.031 20.75c.208 1.636-3.742 8.405-3.188 12.28.37.922 1.616-.9 2.407-1.312l1.906-8.187c3.237-1.842 6.4-1.82 9.906-1.625-3.824-.219-9.473-.611-11.031-1.157zm159.74 83.837c-4.883-.196-12.908-6.936-8.02-.994 0 0 3.282 27.537 3.282 30.844 0 1.15.502 2.995 1.25 4.875 0 0 12.475.675 12.713-4.311zm-21.2-148.21s7.388-.672 8.06.671c.672 1.343 16.792 49.704 16.792 49.704s-3.023 8.06-3.694 12.426l-1.344 33.248-4.162-.95-3.833 2.646 3.056 3.104c-3.42 14.751-.746 18.534-1.106 27.776l-7.47 1.581-.729-10.19c-.238-2.967-4.421-3.231-4.562-5.16-.475-2.612 1.597-15.9 1.597-15.9l7.406-5.299 1.743-12.049-7.724-14.777zM89.533 74.74l-16.97 25.655c2.396 1.245 4.845 3.72 4.845 3.72s-9.943 30.887-13.25 45.218-6.063 47.928-6.063 55.094c0 .762.072 1.463.188 2.094 0 0 2.032-1.869 7.731.031l1.906-42.28 5.932-5.707s-2.571-12.52-2.132-14.718c1.9-9.499 7.443-24.579 8.8-25.414 3.087-1.9 10.443-10.187 10.443-10.187l2.647-10.972-6.672 5.035 2.844-19.725zm23.969-63.313c-.502.016-.952.044-1.375.094-6.776.798-15.443 5.523-18.75 6.625-3.307 1.103-4.125 14.312-4.125 14.312-.375.019-.75.192-1.125.438l.375 22.875 3.437-2.375s-1.004-1.162-.452-4.083c1.213-6.415 9.945-3.448 13.135-.758 1.322 1.115 1.005 11.247 1.005 11.247s-6.88.844-9.063.844-3.78.563-3.78.563l1.5 2.968 4.968.657-8.844 5c.152 2.725.325 5.294 2.031 5.843l7.157-2.656-6.188 7.5 2.906 12.625 2.688 4.188 1.937 6.125s2.333-2.52 3.844-2.688c1.511-.168 9.574 1.172 9.406.5-.168-.671 1.844-5.719 1.844-5.719s-5.364-.656-6.875-.656-8.406 1.656-8.406 1.656l-1.938-4.375s9.345-3.152 10.688-3.656c1.344-.504 8.72 2.344 8.72 2.344l-.5-2.688s-5.552-2.863-7.063-3.03c-1.512-.169-11.406 4.03-11.406 4.03s-2.848-8.398-2.344-9.406c.504-1.007 9.406-5.719 9.406-5.719s2.426-20.457 2.594-21.969c.168-1.51-2.764-4.988-2.764-4.988s4.558-.733 5.87-3.262c2.06-3.969 12.269-4.187 12.269-4.187s.198-3.362-3.284-7.473c-.202-4.95.68-15.23.815-20.152-3.136-.412-6.097-.662-8.312-.593zm11.438 48.376l-10.227.992-.023 1.695 7.718 1.5v-1.5z" fill="#e7e7dd"/><path d="M138.31 20.08s2.48 14.331.276 15.709-2.48 6.339-2.48 6.339 2.48 8.267 2.48 10.473c0 2.204-.552 6.338-1.103 9.094-.551 2.756 3.032 8.82 3.032 10.197s-.827 19.291-2.756 21.496c-1.93 2.205-6.339 12.953-6.339 12.953s-17.638 1.378-21.772 1.103c-4.134-.276-8.268-2.48-8.268-2.48s7.993 5.236 8.82 6.338c.826 1.102 10.196 1.654 10.196 1.654s4.685.55 3.859 2.204c-.827 1.654-4.961 3.583-4.961 3.583s14.606-1.654 16.26-3.032c1.654-1.378 10.748-19.567 12.677-19.843 1.93-.275 3.031-3.582 3.031-3.582s4.134-16.811 3.032-17.638c-1.102-.827-2.756-9.646-2.756-12.402 0-2.756-2.48-33.622-5.512-36.654-3.031-3.032-7.716-5.512-7.716-5.512zm18.476 6.608s21.5 46.022 21.5 50.156-2.21 46.866-3.313 47.969c-1.102 1.102-8.267.832-9.093 3.313-.827 2.48-2.23 26.997-2.781 28.375-.552 1.378-7.42 1.931-9.625 1.656-2.205-.276 4.945 3.562 6.875 3.562s10.196-1.906 12.125-1.906c1.929 0 5.247.531 6.625.531s5.792 1.946 6.343 3.875c.551 1.93 1.637 12.108 2.188 17.344.551 5.237 5.25 26.483 5.25 28.688 0 1.43-1.928 4.237-3.313 6.125 7.234-.15 14.003-.416 15.72-.906 3.858-1.102 2.195-8.81 1.093-13.219-1.102-4.41-9.906-49.062-9.906-49.062s3.844-6.068 3.844-9.375-4.398-41.874-5.5-47.938c-1.103-6.063.537-17.661-2.22-33.094-1.676-9.391-5.392-21.605-10.405-30.625-8.246-3.16-16.448-6.585-25.406-5.469zm-66.719 8.813s-6.872 23.149-8.25 26.594c-2.756 1.24-13.592 1.38-20.406 1.656-2.111.085-6.344 0-6.344 0s-2.889-3.838-5.094-3.563c-2.204.276-6.456 4.224-7.925 7.57-1.367 3.113-.47 8.271-.194 10.2.276 1.93.557 10.758.557 12.136s-6.903 1.625-8.281 1.625c-1.378 0-3.453-16.995-2.888-24.444.342-4.508 8.419-8.337 8.419-8.337L25.88 55.907s1.082 3.304.531 4.406c-.551 1.102-2.469 10.188-2.469 10.188l-8-.812-2.7.331s2.692.481 3.794.481c1.102 0 4.969 2.219 4.969 2.219l-.531 17.625-10.5.844 10.5 1.093s2.755 1.66 3.03 3.313c.276 1.653 1.626 12.938 1.626 12.938s-10.727 1.662-12.656 1.937c-.648.093-1.512.41-2.375.782.752.285 1.542.507 2.375.593 5.502.573 21.402-1.87 24.25-3.312 1.967-.996 4.406-7.156 4.406-7.156s25.338-1.657 28.094-1.657c2.756 0 7.188 4.407 7.188 4.407v.03l.125-.03s2.425-7.387 3.875-11c2.894-7.211 9.625-18.738 9.625-21.22 0-2.48.076-11.471-.813-13.25-.965-1.929-1.526-5.093-1.25-8.124.276-3.032 1.094-15.031 1.094-15.031zm9.384 44.659c-1.397 1.07-1.103 4.409-.69 5.236.414.827.828-3.858 1.379-3.858s4.272 4.133 4.272 4.133-2.067 1.654-2.894 1.654-2.205-.413-2.205-.413.276 1.791 1.24 1.791c.965 0 7.965-2.263 8.957-2.205 2.343.138 13.642 2.618 15.158 2.48 1.516-.137 2.48-2.617 1.378-2.893-1.102-.276-5.098-7.441-6.89-7.579-1.791-.138-3.26-1.041-10.473-1.24-1.54-.043-6.192.563-9.232 2.894zm13.642-26.181s-.827-5.788.827-6.752c1.653-.965 3.582-1.654 5.374-1.103 1.791.551 7.027 5.236 7.854 6.89.643 1.287 1.654 6.752 1.654 6.752s-10.473.827-11.024.827c-.158-2.146 1.952-2.318.413-4.685-1.654-.552-5.098-1.93-5.098-1.93zm-18.051-.276s-2.205-4.685.275-5.512 5.58.093 7.304 1.93c2.435 2.594 3.445 10.196 2.067 10.472-1.378.276-8.268 0-8.268 0s4.685-.55 4.41-2.204c-.276-1.654-.552-1.654-2.343-2.756-1.174-.722-3.445-1.93-3.445-1.93zm-18.756 111.05s6.628 3.6 8.281 3.875c1.654.276 4.406 6.344 4.406 6.344s-.542 4.136-.818 7.994c-.139 1.944-2.492 14.607-.838 16.537 1.654 1.93 5.79 8.546 4.687 10.75-.454.909-1.139 2.072-1.75 3.157 2.588-.086 4.862-.294 6.438-.688 6.614-1.654 11.031-3.312 11.031-3.312l-1.656-21.5v-14.875s34.162-3.304 37.469-4.407c3.307-1.102 6.099-1.168 8.844-.28 1.277.412 2.615 1.508 3.718 2.593l.407-.375s-3.883-5.244-6.625-4.969c-18.003 1.805-46.843 4.412-49.875 4.688-3.032.275-13.508-3.875-15.438-3.875-1.93 0-8.282-1.657-8.282-1.657z" fill="#595151"/><path d="M119.09 11.69c.635-.974-.238-1.813-.206-2.637.457 1.008 1.01 2.135.827 2.343 1.504-.18 1.394-1.228 1.929-1.93v2.068l2.618.689c1.118-.877.474-2.006.551-3.032l1.103 1.654c-.317.732 1.528 1.246 2.204-.827.138-.827-.826-2.894-.826-2.894s1.136 1.686 1.585 2.593c.356.719.895 2.092.895 2.092 1.037-.25 1.836-.578 1.9-1.36.059-.74-.595-1.927-.421-2.383l1.14 2.228c.696 1.361.362 2.443 1.515.137l1.378-2.756c-.355 1.804-1.807 5.528-.965 5.237h1.792c1.412-.139.79-2.084.827-3.445l.688.827c.834.643 1.382-.922.878-3.245l.776 1.591c1.25 2.187.64-2.715.64-2.715.481.625 1.202 2.96.876 4.23l1.102-.688-.689 3.858c1.925.655 3.676.913 4.272-.138.78-1.378 3.064-8.006 2.342-4.134-.139.748-.735 5.459-.05 3.593.234-.64.83-2.8.818-2.58-.09 1.572.522 3.02 1.814 1.38l1.828-3.22s-1.103 3.032-.827 3.997c.276.964-.16 2.568.965 2.756 0 0 1.228-3.109 1.791-3.859-.375 1-.964 3.996-.964 3.996l1.79.551s-.272-4.083.139-6.063c.272-1.31 1.516-3.72 1.516-3.72s-.836 3.746-.827 5.65c.007 1.487.689 4.41.689 4.41.348-1.353.25-2.63 1.516-4.135l.038 3.067c-.069 1.254.271 1.485 1.202.24.218 1.307.972-2.3 1.14-3.494.087-.61.563 1.258.927 1.84.642 1.029.08 3.832 2.204 2.894 0 0 1.378-2.618 1.378-1.791s.138 2.756.138 2.756c-.42.524 1.418.984 1.792.138.137-.552 2.388-2.3 1.288-.664-.317.472-2.33 2.356.013 3.32 2.342.965 2.006 2.442 2.006 2.442l-4.485-3.53s-1.87-.153-3.496-.291c-.7-.06-2.492-.726-3.319-.864-.826-.138-1.791-.551-1.102-.413.689.137 1.516 2.067 1.516 2.067-.69-.735-1.317-1.47-2.894-2.205-2.208-.1-2.567-.637-6.625-.301 0 0 1.413 1.61.975 1.266-.99-.423-.892-.825-2.26-1.266 0 0-6.094-1.003-7.844-.94 1.312.25 2.051 2.31 2.051 2.31s-1.172-2.06-3.797-2.998c.736.929.406 1.821.551 2.756-.6-1.114-.554-2.506-2.205-3.17 0 0-9.645-1.102-10.197-1.515-1.875-.938-6.08-1.46-7.924-1.773z" fill="#447821"/></g></svg>