<svg xmlns="http://www.w3.org/2000/svg" width="600" height="600" xmlns:v="https://vecta.io/nano"><path d="M0 0h600v600H0z" fill="#fff" fill-opacity="0" pointer-events="none"/><g transform="matrix(-7.612992 0 0 7.612992 2991.82059 -4110.740965)"><path d="M359.288 519.404c-3.923.462-7.94 1.946-11.47 3.406l-7.875 3.344c-2.497.832-3.243 2.762-3.906 4.47s-1.078 3.578-1.406 5.406c-.483 2.7-.563 4.05-.656 5.22-.568.384-1.078.816-1.5 1.28-.966 1.067-1.738 2.338-2.47 3.75-1.462 2.824-2.746 6.3-3.844 9.75-1.6 5.06-2.6 9.1-3.125 11.406l-20.97.97c-.5-.378-.834-.68-1.97-1.406-1.703-1.093-3.808-2.365-6.22-2.906-2.228-.5-4.767-.402-7.03-.312-2.007.08-3.298.186-3.656.22-.423-.105-2.57-.64-5.72-1.28-3.443-.702-7.403-1.437-10.438-1.437-3.256 0-6.274 1.203-8.625 2.938s-4.312 4.06-4.312 7.22c0 2.3-.7 6.425-.906 7.688-.588.382-.89.544-1.812 1.28-.783.626-1.587 1.316-2.312 2.188s-1.562 1.92-1.562 3.72v9.375c0 2.846 1.47 4.277 2.563 5.688.425.55.486.565.844.97-.366.925-.658 1.633-1.28 3.5-.468 1.402-.93 2.886-1.25 4.313s-.615 2.642-.28 4.313c.466 2.33 1.793 4.564 3.875 6.72s5.026 4.088 8.688 4.47c3.484.363 8.71-.17 13.844-.906 2.567-.368 5.057-.808 7.125-1.25s3.526-.722 4.938-1.437c1.38-.7 1.993-1.602 2.625-2.5s1.158-1.872 1.625-2.78c.455-.886.503-1.052.78-1.687l11.22-.72 14.906-.812c-.22 0 1.542.63 2.813 1.594.53.403.557.478.938.813-1 3.08-9.547 29.65-12.75 43.53-3.456 14.976-6.125 47.847-6.125 55.78 0 4.353 1.984 7.708 4.625 9.375s5.532 1.906 7.75 1.906c1.5 0 7.4.416 13.47.625s12.286.327 16.47-.72c6.767-1.692 11.375-3.406 11.375-3.406a3 3 0 0 0 1.94-3.03l-1.656-21.5v-11.938l14.812-1.53 12.78-1.47 4.78-.656c1.3-.204 2.096-.313 3.03-.625 2.86-.954 4.832-.972 6.97-.28.425.137 1.86 1.172 2.875 2.22.74.763.995 1.112 1.25 1.438l1.53 13.28 1.125 10.406c.306 3.026.5 5.576.5 5.906 0 2.827 1.128 5.767 2.688 8.72.78 1.476 1.7 2.853 2.813 4.03s2.528 2.375 4.688 2.375l18.03-.125 11.625-.344c3.385-.157 5.604-.2 7.53-.75 1.907-.545 3.334-2.142 3.938-3.687s.698-3.085.656-4.625c-.084-3.08-.84-6.24-1.406-8.5-.43-1.716-3.006-14.353-5.344-26.062l-4.312-21.812c.37-.614.714-1.14 1.438-2.594 1.037-2.083 2.25-4.434 2.25-7.25 0-1.492-.287-4.15-.72-8.344l-1.625-14.938-3.22-25.188c-.888-4.885.65-17.202-2.187-33.094-1.424-7.972-4.237-17.785-8.094-26.28s-8.522-15.924-15.344-18.438c-5.674-2.1-12.08-3-17.688-3.562s-10.605-.843-12.438-1.25c-2.492-.554-8.165-1.773-14.094-2.78s-11.887-1.874-16.125-1.375z"/><path d="M360.568 525.324c-.187-.5 1.125-5.312 1.125-5.312s-3.937.844-4.187-.687c-.113-.7 2.313-3.625 2.813-4.687s2.188-5.375 4.5-3.187 4 3.938 4.063 5-3.75 2.938-3.75 2.938.468 5.2-.437 6.313c-1.01 1.24-4.125-.375-4.125-.375z" fill="#e9ddaf"/><path d="M364.538 511.244c.1.61.296 1.587.656 2.22.5.875.438 3-.312 3.188s-5.5 1.688-5.625 2.563 2.53.03 2.53.03c-.075.72-.217 1.29-.312 1.906.912.057 2.135.61 2.28 1.438.126.713-.022 2.337-.156 3.563.446-.02.835-.12 1.094-.437.906-1.112.438-6.312.438-6.312s3.813-1.875 3.75-2.937-1.75-2.812-4.062-5c-.092-.087-.19-.15-.28-.22z" fill="#786721"/><path d="M346.118 521.824s-4.96 1.654-5.925 1.516-.435-1.583-.172-2.308c.725-2 3.03-3.652 4.444-4.582 1.06-.7 6.614-.276 7.58.413s1.378 2.067.413 2.618-6.34 2.342-6.34 2.342z" fill="#c83737"/><path d="M351.598 516.674c.204.438.536 1.173.406 1.406-.172.3-1.2.93-1.5 1s-3.375.193-4.72.47-3.618 2.174-4.03 2.656.087.56.5.594l4.188-1.062 6.03-2.25c.965-.55.527-1.936-.437-2.625-.098-.07-.255-.124-.437-.187z" fill="maroon"/><path d="M345.228 521.574l1.31 4.788c-.276.413 2.067.965 2.067.965l3.17-1.79s-1.337-1.288-2.205-1.79c-.906-.526-2.1-2.928-2.1-2.928-.58-.358-2.045.132-2.24.758z" fill="#f4eed7"/><path d="M346.908 520.714c-.666.016-1.542.406-1.687.875l.47 1.594c.407-.13.882-.27 1.156-.25.482.034 2.38.818 3.063 1.78.32.45.313 1.625.313 1.625l.375-.125 1.188-.656s-1.35-1.31-2.22-1.812c-.906-.526-2.094-2.906-2.094-2.906-.145-.1-.34-.13-.562-.125z" fill="#786721"/><path d="M369.598 523.274s.655-.727.53-3.977c.563 1.438.62 4.508.62 4.508s.916-.865.354-2.74c.563.438 1.503 2.917 1.503 2.917l1.59-1.06-1.945-4.596c.563.563 2.647 4.406 2.2 3.094 0 0 .073-.522-.177-2.2 1.125 1.375 2.033 4.42 2.033 4.42l2.652-.088-1.326-5.48c1.938 3.125 2.12 4.95 2.12 4.95l1.68 1.503c1.51-.984 1.1-2.922 1.414-4.508l.177 1.768c.997 2.19.258-1.98.354-3.094l1.768 5.038 3.36-.795.442-4.508.088 6.717 2.298.265c.323-.955-.124-2.064-.62-3.182.772.948 1.544 1.895 1.503 3.005.274-.825.7-1.65.177-2.475.6.546.94 1.144.707 1.856l3.113-.914c.882.65.36-2.44.334-4.212l.796 1.414.62-3.094c-.373 4.61.017 4.894.088 6.983l1.326.354.707-2.74.354 4.685 1.326.088-.088-3.712 1.945 3.535 1.326-.884-.707-3.977 2.74 5.392-.177-3.27 2.12 3.36s2.563.795 2.033.795-1.326-2.74-1.326-2.74l2.74 3.624-1.326 1.06-41.366-6.452z" fill="#4a0"/><path d="M336.748 543.314c-5.512.276-11.3 27.008-11.3 27.008l-24.252 1.102s-4.6-3.65-7.992-4.41c-3.07-.69-10.197 0-10.197 0s-11.024-2.756-15.984-2.756-9.92 3.858-9.92 7.165-1.102 9.37-1.102 9.37-5.512 3.307-5.512 5.512v9.37c0 2.205 3.858 6.063 3.858 6.063s-3.858 9.37-3.307 12.126 4.412 8.245 9.92 8.82c5.502.573 21.404-1.865 24.252-3.307 1.967-.996 4.41-7.165 4.41-7.165l28.1-1.654c2.756 0 7.165 4.41 7.165 4.41s-9.92 30.866-13.228 45.197-6.063 47.953-6.063 55.118 5.512 8.268 9.37 8.268 22.6 1.654 29.213 0 11.024-3.307 11.024-3.307l-1.654-21.496v-14.882s34.173-3.307 37.48-4.41 6.074-1.163 8.82-.276c2.843.92 6.063 5.236 6.063 5.236l3.307 30.866c0 3.307 3.858 12.126 7.165 12.126s32.52 0 36.378-1.102 2.205-8.82 1.102-13.228-9.92-49.055-9.92-49.055 3.858-6.063 3.858-9.37-4.41-41.9-5.512-47.953.55-17.638-2.205-33.07-11.024-38.583-21.496-42.44-24.803-3.583-29.764-4.685-22.437-4.932-29.213-4.134-15.433 5.512-18.74 6.614-4.134 14.33-4.134 14.33z" fill="#b8b4ab"/><path d="M386.65 530.072s2.48 14.33.276 15.71-2.48 6.34-2.48 6.34 2.48 8.268 2.48 10.473-.55 6.34-1.102 9.095 3.03 8.82 3.03 10.197-.827 19.29-2.756 21.496-6.34 12.953-6.34 12.953-17.638 1.378-21.772 1.102-8.268-2.48-8.268-2.48 7.992 5.236 8.82 6.34 10.197 1.654 10.197 1.654 4.685.55 3.858 2.205-4.96 3.583-4.96 3.583 14.606-1.654 16.26-3.032 10.748-19.567 12.677-19.843 3.03-3.583 3.03-3.583 4.134-16.81 3.03-17.638-2.756-9.646-2.756-12.402-2.48-33.622-5.512-36.654-7.717-5.512-7.717-5.512zm18.476 6.608s21.5 46.022 21.5 50.156-2.2 46.866-3.312 47.97-8.267.832-9.094 3.313-2.23 26.997-2.78 28.375-7.42 1.932-9.625 1.656 4.946 3.563 6.875 3.563 10.196-1.906 12.125-1.906 5.247.53 6.625.53 5.793 1.946 6.344 3.875 1.636 12.108 2.188 17.344 5.25 26.483 5.25 28.688c0 1.43-1.927 4.237-3.312 6.125 7.234-.15 14.003-.416 15.72-.906 3.858-1.102 2.196-8.81 1.094-13.22s-9.906-49.062-9.906-49.062 3.844-6.068 3.844-9.375-4.398-41.874-5.5-47.938.537-17.66-2.22-33.094c-1.677-9.39-5.393-21.605-10.406-30.625-8.246-3.16-16.448-6.585-25.406-5.47zm-66.72 8.813l-8.25 26.594c-2.756 1.24-13.592 1.38-20.406 1.656-2.11.086-6.344 0-6.344 0s-2.89-3.838-5.094-3.562-6.457 4.224-7.925 7.57c-1.367 3.114-.47 8.272-.194 10.2s.557 10.758.557 12.136-6.903 1.625-8.28 1.625-3.453-16.995-2.887-24.444c.342-4.508 8.42-8.337 8.42-8.337l-13.78-3.03s1.082 3.304.53 4.406-2.47 10.188-2.47 10.188l-8-.812-2.7.332s2.692.48 3.794.48 4.97 2.22 4.97 2.22l-.53 17.625-10.5.844 10.5 1.094s2.756 1.66 3.03 3.313 1.625 12.938 1.625 12.938l-12.656 1.938c-.647.092-1.512.4-2.375.78.752.285 1.542.507 2.375.594 5.502.573 21.402-1.87 24.25-3.312 1.967-.996 4.406-7.156 4.406-7.156l28.094-1.656c2.756 0 7.188 4.406 7.188 4.406v.03l.125-.03s2.425-7.387 3.875-11c2.894-7.21 9.625-18.738 9.625-21.22s.076-11.472-.812-13.25c-.965-1.93-1.526-5.093-1.25-8.125s1.094-15.03 1.094-15.03zm9.384 44.66c-1.397 1.07-1.102 4.41-.69 5.236s.827-3.858 1.378-3.858 4.272 4.134 4.272 4.134-2.067 1.654-2.894 1.654-2.205-.413-2.205-.413.276 1.79 1.24 1.79 7.965-2.263 8.957-2.205c2.342.138 13.642 2.618 15.158 2.48s2.48-2.618 1.378-2.894-5.1-7.44-6.9-7.58-3.26-1.04-10.473-1.24c-1.54-.043-6.193.563-9.232 2.894zm13.642-26.18s-.827-5.787.827-6.752 3.583-1.654 5.374-1.102 7.028 5.236 7.854 6.9c.643 1.287 1.654 6.752 1.654 6.752l-11.024.827c-.157-2.146 1.953-2.318.413-4.685-1.654-.55-5.1-1.93-5.1-1.93zm-18.05-.276s-2.205-4.685.276-5.512 5.58.093 7.303 1.93c2.435 2.595 3.445 10.197 2.067 10.473s-8.268 0-8.268 0 4.685-.55 4.41-2.205-.55-1.654-2.342-2.756c-1.174-.722-3.445-1.93-3.445-1.93zm-18.756 111.05s6.628 3.6 8.28 3.875 4.406 6.344 4.406 6.344-.543 4.136-.818 7.995c-.14 1.944-2.492 14.607-.838 16.537s5.8 8.545 4.688 10.75c-.454.908-1.14 2.072-1.75 3.156 2.588-.086 4.86-.293 6.438-.687 6.614-1.654 11.03-3.312 11.03-3.312l-1.656-21.5v-14.875s34.162-3.304 37.47-4.406 6.1-1.17 8.844-.28c1.277.413 2.616 1.51 3.72 2.594l.406-.375s-3.883-5.244-6.625-4.97l-49.875 4.688c-3.03.276-13.508-3.875-15.438-3.875s-8.28-1.656-8.28-1.656z" fill="#595151"/><path d="M366.588 522.524c.635-.974-.238-1.813-.206-2.637.457 1.008 1 2.135.827 2.342 1.504-.18 1.394-1.228 1.93-1.93v2.067l2.618.69c1.118-.877.474-2.006.55-3.032l1.102 1.654c-.316.732 1.528 1.247 2.205-.827.138-.827-.827-2.894-.827-2.894l1.585 2.592c.356.72.895 2.092.895 2.092 1.038-.25 1.836-.578 1.9-1.36.06-.74-.594-1.927-.42-2.383l1.14 2.227c.696 1.362.363 2.443 1.516.138l1.378-2.756c-.355 1.804-1.807 5.528-.965 5.236h1.79c1.412-.138.8-2.084.827-3.445l.69.827c.833.644 1.38-.92.878-3.245l.776 1.59c1.25 2.188.64-2.715.64-2.715.482.625 1.203 2.96.876 4.23l1.102-.69-.69 3.858c1.924.655 3.676.913 4.272-.138.78-1.378 3.065-8.006 2.342-4.134-.14.747-.735 5.46-.05 3.592l.82-2.58c-.1 1.57.522 3.02 1.813 1.38l1.828-3.22s-1.102 3.032-.827 3.996-.16 2.568.965 2.756c0 0 1.23-3.108 1.79-3.858-.375 1-.965 3.996-.965 3.996l1.79.55s-.273-4.084.138-6.063c.272-1.31 1.516-3.72 1.516-3.72s-.836 3.746-.827 5.65c.007 1.488.69 4.41.69 4.41.35-1.352.25-2.63 1.516-4.134l.038 3.067c-.07 1.254.27 1.485 1.202.24.218 1.307.972-2.3 1.14-3.495.086-.6.562 1.26.926 1.84.643 1.028.08 3.83 2.205 2.894 0 0 1.378-2.618 1.378-1.79s.138 2.756.138 2.756c-.42.524 1.418.984 1.79.138.138-.55 2.388-2.3 1.288-.663-.317.472-2.33 2.355.013 3.32s2.006 2.442 2.006 2.442l-4.485-3.53-3.496-.29c-.7-.06-2.492-.726-3.318-.864s-1.79-.55-1.102-.413 1.516 2.067 1.516 2.067c-.69-.735-1.316-1.47-2.894-2.205-2.21-.1-2.567-.637-6.625-.3 0 0 1.413 1.6.976 1.266-.99-.423-.892-.825-2.26-1.266l-7.845-.94c1.313.25 2.05 2.3 2.05 2.3s-1.172-2.06-3.797-2.997c.736.93.406 1.822.55 2.756-.6-1.114-.554-2.505-2.205-3.17 0 0-9.646-1.102-10.197-1.516-1.875-.937-6.08-1.46-7.924-1.773z" fill="#447821"/><path d="M336.748 543.304c-5.512.276-11.312 27.03-11.312 27.03h-.187l3.47 1 8.094-25.156zm-69.72 20.97c-4.96 0-9.937 3.85-9.937 7.156 0 2.917-.768 7.408-.97 8.563l1.25-.125c.276-2.184 1.16-8.673 2.25-10.656 1.747-3.176 4.462-3.494 5.906-3.47 2.523.044 3.797-.354 4.594-1.25-1.148-.14-2.226-.22-3.094-.22zm21.594 2.438c-2.53.03-4.803.235-5.312.28l2.825 2.63-8.48 5.65 1.966 26.97 4.6-1.05c-2.423-6.766-2.037-15.075-2.078-22.005l4.776-.94c.362-1.538 3.653-5.714 7.017-7.85-.315-1.147-.688-2.277-1.062-3.406-1.138-.207-2.692-.3-4.25-.28zm-31.375 14.125l-1.437.063c-.178.107-5.312 3.238-5.312 5.406v9.375c.43 1.36 1.225.5 2.594.25-.475-2.493-.37-9.863.344-10.812s3.813-4.28 3.813-4.28zm-3.03 20.75c.21 1.636-3.742 8.406-3.187 12.28.37.92 1.616-.9 2.406-1.312l1.906-8.187c3.238-1.842 6.4-1.82 9.906-1.625-3.824-.218-9.473-.61-11.03-1.156zm159.74 83.837c-4.883-.195-12.908-6.935-8.02-.993l3.28 30.844c0 1.15.502 2.994 1.25 4.875 0 0 12.475.675 12.713-4.312zm-21.2-148.2s7.388-.672 8.06.672 16.792 49.704 16.792 49.704-3.022 8.06-3.694 12.426l-1.343 33.248-4.162-.95-3.833 2.646 3.056 3.104c-3.42 14.75-.746 18.534-1.106 27.776l-7.47 1.58-.73-10.2c-.238-2.967-4.42-3.23-4.563-5.16-.475-2.612 1.598-15.9 1.598-15.9l7.405-5.3 1.744-12.05-7.724-14.777zm-55.726 48.362l-16.97 25.656c2.396 1.244 4.844 3.72 4.844 3.72s-9.943 30.888-13.25 45.22-6.062 47.928-6.062 55.094a11.57 11.57 0 0 0 .188 2.094s2.032-1.87 7.73.03l1.906-42.28 5.93-5.706s-2.57-12.52-2.13-14.718c1.9-9.5 7.443-24.58 8.8-25.414 3.087-1.9 10.443-10.187 10.443-10.187l2.647-10.972-6.672 5.034 2.844-19.725zM361 522.263a16 16 0 0 0-1.375.094c-6.776.798-15.443 5.523-18.75 6.625s-4.125 14.312-4.125 14.312c-.374.02-.75.19-1.125.438l.375 22.875 3.438-2.375s-1.004-1.162-.452-4.083c1.212-6.415 9.945-3.448 13.135-.758 1.322 1.115 1.005 11.247 1.005 11.247s-6.88.844-9.062.844-3.78.563-3.78.563l1.5 2.97 4.97.656-8.844 5c.152 2.725.325 5.294 2.03 5.844l7.156-2.656-6.187 7.5 2.906 12.625 2.688 4.188 1.938 6.125s2.332-2.52 3.844-2.687 9.574 1.172 9.406.5 1.844-5.72 1.844-5.72-5.364-.656-6.875-.656-8.406 1.656-8.406 1.656l-1.937-4.375L357 599.356c1.343-.504 8.72 2.344 8.72 2.344l-.5-2.687s-5.55-2.863-7.062-3.03-11.406 4.03-11.406 4.03-2.848-8.4-2.344-9.406 9.406-5.72 9.406-5.72l2.594-21.97c.168-1.51-2.764-4.988-2.764-4.988s4.558-.733 5.87-3.262c2.06-3.97 12.27-4.187 12.27-4.187s.198-3.362-3.284-7.473c-.202-4.95.68-15.23.815-20.152-3.136-.412-6.098-.662-8.312-.594zm11.438 48.375l-10.227.992-.023 1.695 7.72 1.5v-1.5z" fill="#e7e7dd"/></g></svg>